<?xml version="1.0" encoding="UTF-8" standalone="no"?>
<!DOCTYPE svg PUBLIC "-//W3C//DTD SVG 1.1//EN" "http://www.w3.org/Graphics/SVG/1.1/DTD/svg11.dtd">
<svg xmlns="http://www.w3.org/2000/svg" version="1.1" viewBox="0.00 0.00 143.00 128.00">
<g stroke-width="2.00" fill="none" stroke-linecap="butt">
<path stroke="#f38e91" vector-effect="non-scaling-stroke" d="
  M 87.99 9.46
  L 88.05 4.58
  A 2.55 2.54 0.4 0 0 85.50 2.00
  Q 76.23 2.03 65.21 1.96
  C 60.36 1.92 61.47 6.22 61.49 9.40
  Q 61.49 9.94 60.95 9.94
  L 32.75 9.94
  Q 29.93 9.94 29.93 12.76
  L 29.93 23.60
  A 2.67 2.66 -0.0 0 0 32.60 26.26
  L 116.81 26.26
  A 2.57 2.57 0.0 0 0 119.38 23.69
  L 119.38 12.53
  A 2.59 2.59 0.0 0 0 116.79 9.94
  L 88.46 9.94
  A 0.48 0.47 -90.0 0 1 87.99 9.46"
/>
<path stroke="#f38e91" vector-effect="non-scaling-stroke" d="
  M 114.88 35.43
  A 2.69 2.69 0.0 0 0 112.19 32.74
  L 37.17 32.74
  A 2.69 2.69 0.0 0 0 34.48 35.43
  L 34.48 108.07
  A 2.69 2.69 0.0 0 0 37.17 110.76
  L 112.19 110.76
  A 2.69 2.69 0.0 0 0 114.88 108.07
  L 114.88 35.43"
/>
</g>
<path fill="#ffffff" d="
  M 0.00 0.00
  L 143.00 0.00
  L 143.00 128.00
  L 0.00 128.00
  L 0.00 0.00
  Z
  M 87.99 9.46
  L 88.05 4.58
  A 2.55 2.54 0.4 0 0 85.50 2.00
  Q 76.23 2.03 65.21 1.96
  C 60.36 1.92 61.47 6.22 61.49 9.40
  Q 61.49 9.94 60.95 9.94
  L 32.75 9.94
  Q 29.93 9.94 29.93 12.76
  L 29.93 23.60
  A 2.67 2.66 -0.0 0 0 32.60 26.26
  L 116.81 26.26
  A 2.57 2.57 0.0 0 0 119.38 23.69
  L 119.38 12.53
  A 2.59 2.59 0.0 0 0 116.79 9.94
  L 88.46 9.94
  A 0.48 0.47 -90.0 0 1 87.99 9.46
  Z
  M 114.88 35.43
  A 2.69 2.69 0.0 0 0 112.19 32.74
  L 37.17 32.74
  A 2.69 2.69 0.0 0 0 34.48 35.43
  L 34.48 108.07
  A 2.69 2.69 0.0 0 0 37.17 110.76
  L 112.19 110.76
  A 2.69 2.69 0.0 0 0 114.88 108.07
  L 114.88 35.43
  Z"
/>
<path fill="#e61c23" d="
  M 87.99 9.46
  A 0.48 0.47 -90.0 0 0 88.46 9.94
  L 116.79 9.94
  A 2.59 2.59 0.0 0 1 119.38 12.53
  L 119.38 23.69
  A 2.57 2.57 0.0 0 1 116.81 26.26
  L 32.60 26.26
  A 2.67 2.66 -0.0 0 1 29.93 23.60
  L 29.93 12.76
  Q 29.93 9.94 32.75 9.94
  L 60.95 9.94
  Q 61.49 9.94 61.49 9.40
  C 61.47 6.22 60.36 1.92 65.21 1.96
  Q 76.23 2.03 85.50 2.00
  A 2.55 2.54 0.4 0 1 88.05 4.58
  L 87.99 9.46
  Z"
/>
<rect fill="#e61c23" x="34.48" y="32.74" width="80.40" height="78.02" rx="2.69"/>
</svg>
