<?xml version="1.0" encoding="UTF-8" standalone="no"?>
<!DOCTYPE svg PUBLIC "-//W3C//DTD SVG 1.1//EN" "http://www.w3.org/Graphics/SVG/1.1/DTD/svg11.dtd">
<svg xmlns="http://www.w3.org/2000/svg" version="1.1" viewBox="0.00 0.00 512.00 512.00">
<path fill="#000000" d="
  M 139.43 288.46
  Q 139.88 288.41 139.78 287.96
  L 83.41 48.37
  A 0.43 0.43 0.0 0 0 82.99 48.03
  Q 60.37 47.92 34.95 48.06
  Q 28.77 48.09 25.91 46.78
  C 16.76 42.56 12.96 31.95 18.60 23.33
  Q 21.51 18.86 25.93 17.15
  Q 28.84 16.01 35.22 16.01
  Q 63.94 16.00 95.00 15.99
  Q 103.83 15.98 108.55 22.12
  Q 111.07 25.39 112.88 33.42
  Q 117.88 55.68 123.65 79.49
  Q 123.77 79.99 124.29 79.99
  Q 286.54 80.01 448.74 80.00
  C 475.16 79.99 496.61 102.87 496.02 128.79
  Q 495.90 133.98 493.06 146.07
  Q 476.62 216.06 460.09 286.02
  Q 458.34 293.42 451.27 302.05
  Q 440.25 315.50 424.17 318.88
  Q 418.49 320.08 408.17 320.07
  Q 276.41 319.92 143.83 320.02
  C 137.48 320.03 131.72 323.97 129.31 329.74
  C 125.83 338.11 129.68 347.32 137.99 350.79
  Q 141.02 352.06 147.40 352.06
  Q 279.56 352.01 411.72 351.95
  Q 419.56 351.94 422.53 353.38
  C 431.55 357.75 434.87 368.50 429.18 376.97
  C 426.23 381.36 421.18 384.03 415.83 384.02
  Q 280.61 383.95 145.03 384.03
  Q 127.55 384.04 114.53 373.94
  C 92.75 357.05 89.67 325.44 107.74 304.73
  Q 120.07 290.60 139.43 288.46
  Z"
/>
<circle fill="#000000" cx="192.00" cy="448.00" r="47.97"/>
<circle fill="#000000" cx="368.00" cy="448.00" r="47.97"/>
</svg>
