<?xml version="1.0" encoding="UTF-8" standalone="no"?>
<!DOCTYPE svg PUBLIC "-//W3C//DTD SVG 1.1//EN" "http://www.w3.org/Graphics/SVG/1.1/DTD/svg11.dtd">
<svg xmlns="http://www.w3.org/2000/svg" version="1.1" viewBox="0.00 0.00 512.00 512.00">
<g stroke-width="2.00" fill="none" stroke-linecap="butt">
<path stroke="#777777" vector-effect="non-scaling-stroke" d="
  M 174.37 191.10
  Q 173.54 191.38 173.26 191.18"
/>
<path stroke="#777777" vector-effect="non-scaling-stroke" d="
  M 169.76 192.02
  Q 169.06 192.46 168.27 192.25"
/>
<path stroke="#777777" vector-effect="non-scaling-stroke" d="
  M 163.56 193.05
  Q 162.39 193.41 161.26 193.27"
/>
<path stroke="#777777" vector-effect="non-scaling-stroke" d="
  M 156.54 194.05
  Q 155.16 194.47 154.00 194.28"
/>
<path stroke="#777777" vector-effect="non-scaling-stroke" d="
  M 149.06 195.07
  Q 147.94 195.48 146.99 195.27"
/>
<path stroke="#777777" vector-effect="non-scaling-stroke" d="
  M 136.05 197.06
  Q 135.21 197.38 134.22 197.27"
/>
<path stroke="#777777" vector-effect="non-scaling-stroke" d="
  M 121.81 199.09
  L 119.97 199.40"
/>
<path stroke="#777777" vector-effect="non-scaling-stroke" d="
  M 115.29 200.07
  Q 114.06 200.40 113.00 200.29"
/>
<path stroke="#777777" vector-effect="non-scaling-stroke" d="
  M 108.31 201.07
  L 105.95 201.41"
/>
<path stroke="#777777" vector-effect="non-scaling-stroke" d="
  M 101.55 202.07
  L 98.96 202.42"
/>
<path stroke="#777777" vector-effect="non-scaling-stroke" d="
  M 87.54 204.03
  L 84.96 204.43"
/>
<path stroke="#777777" vector-effect="non-scaling-stroke" d="
  M 74.05 206.03
  Q 73.19 206.44 72.25 206.23"
/>
<path stroke="#777777" vector-effect="non-scaling-stroke" d="
  M 67.06 207.06
  Q 66.13 207.41 65.25 207.20"
/>
<path stroke="#777777" vector-effect="non-scaling-stroke" d="
  M 60.05 208.05
  Q 58.97 208.41 58.03 208.30"
/>
<path stroke="#777777" vector-effect="non-scaling-stroke" d="
  M 52.69 208.96
  Q 52.15 209.51 51.02 209.29"
/>
<path stroke="#777777" vector-effect="non-scaling-stroke" d="
  M 45.50 209.97
  Q 44.78 210.36 44.03 210.22"
/>
<path stroke="#777777" vector-effect="non-scaling-stroke" d="
  M 145.06 321.38
  Q 146.50 327.67 145.36 335.12
  Q 144.30 342.07 143.02 348.98"
/>
<path stroke="#777777" vector-effect="non-scaling-stroke" d="
  M 139.50 368.33
  L 139.07 372.15"
/>
<path stroke="#777777" vector-effect="non-scaling-stroke" d="
  M 138.51 374.13
  Q 138.64 376.02 137.97 377.53"
/>
<path stroke="#777777" vector-effect="non-scaling-stroke" d="
  M 137.20 382.33
  Q 137.34 383.22 137.07 384.01"
/>
<path stroke="#777777" vector-effect="non-scaling-stroke" d="
  M 136.20 388.25
  Q 136.41 389.37 135.95 389.73"
/>
<path stroke="#777777" vector-effect="non-scaling-stroke" d="
  M 133.55 403.33
  L 131.03 418.79"
/>
<path stroke="#777777" vector-effect="non-scaling-stroke" d="
  M 130.19 423.34
  Q 130.40 424.38 129.99 424.97"
/>
<path stroke="#777777" vector-effect="non-scaling-stroke" d="
  M 127.53 438.33
  L 125.02 453.78"
/>
<path stroke="#777777" vector-effect="non-scaling-stroke" d="
  M 124.19 458.28
  L 123.85 460.26"
/>
<path stroke="#777777" vector-effect="non-scaling-stroke" d="
  M 293.57 412.68
  Q 294.31 413.01 293.75 413.13"
/>
<path stroke="#777777" vector-effect="non-scaling-stroke" d="
  M 312.49 422.91
  Q 312.38 422.58 312.80 422.95"
/>
<path stroke="#777777" vector-effect="non-scaling-stroke" d="
  M 331.55 432.65
  Q 331.24 432.67 331.81 432.96"
/>
<path stroke="#777777" vector-effect="non-scaling-stroke" d="
  M 387.98 458.82
  Q 387.77 460.06 387.82 458.23"
/>
<path stroke="#777777" vector-effect="non-scaling-stroke" d="
  M 386.94 454.01
  L 383.91 436.24"
/>
<path stroke="#777777" vector-effect="non-scaling-stroke" d="
  M 382.53 427.75
  L 380.31 414.71"
/>
<path stroke="#777777" vector-effect="non-scaling-stroke" d="
  M 379.93 413.06
  L 378.28 402.75"
/>
<path stroke="#777777" vector-effect="non-scaling-stroke" d="
  M 377.75 400.22
  L 376.35 392.21"
/>
<path stroke="#777777" vector-effect="non-scaling-stroke" d="
  M 375.51 386.73
  L 373.40 374.23"
/>
<path stroke="#777777" vector-effect="non-scaling-stroke" d="
  M 372.94 372.27
  L 372.36 368.24"
/>
<path stroke="#777777" vector-effect="non-scaling-stroke" d="
  M 370.59 357.73
  Q 370.04 356.53 369.95 354.96"
/>
<path stroke="#777777" vector-effect="non-scaling-stroke" d="
  M 368.90 349.06
  L 368.33 345.21"
/>
<path stroke="#777777" vector-effect="non-scaling-stroke" d="
  M 367.92 343.07
  L 367.39 339.24"
/>
<path stroke="#777777" vector-effect="non-scaling-stroke" d="
  M 366.93 337.28
  L 366.32 331.71"
/>
<path stroke="#777777" vector-effect="non-scaling-stroke" d="
  M 366.38 323.98
  L 366.91 320.93"
/>
<path stroke="#777777" vector-effect="non-scaling-stroke" d="
  M 447.71 233.32
  Q 448.38 231.72 450.08 230.86"
/>
<path stroke="#777777" vector-effect="non-scaling-stroke" d="
  M 467.87 210.21
  L 465.59 209.81"
/>
<path stroke="#777777" vector-effect="non-scaling-stroke" d="
  M 460.53 209.22
  Q 459.55 209.38 458.93 209.03"
/>
<path stroke="#777777" vector-effect="non-scaling-stroke" d="
  M 434.49 205.40
  Q 432.77 205.45 431.53 204.94"
/>
<path stroke="#777777" vector-effect="non-scaling-stroke" d="
  M 427.41 204.35
  Q 425.71 204.55 424.47 203.90"
/>
<path stroke="#777777" vector-effect="non-scaling-stroke" d="
  M 420.54 203.37
  Q 418.78 203.44 417.54 202.90"
/>
<path stroke="#777777" vector-effect="non-scaling-stroke" d="
  M 413.40 202.34
  Q 412.75 202.76 412.48 202.21"
/>
<path stroke="#777777" vector-effect="non-scaling-stroke" d="
  M 406.50 201.37
  Q 405.03 201.42 403.70 201.02"
/>
<path stroke="#777777" vector-effect="non-scaling-stroke" d="
  M 399.40 200.34
  Q 398.14 200.50 396.68 200.04"
/>
<path stroke="#777777" vector-effect="non-scaling-stroke" d="
  M 371.98 196.50
  Q 370.48 196.42 369.47 196.00"
/>
<path stroke="#777777" vector-effect="non-scaling-stroke" d="
  M 367.41 195.64
  L 362.54 194.92"
/>
<path stroke="#777777" vector-effect="non-scaling-stroke" d="
  M 357.97 194.42
  Q 356.79 194.60 357.00 194.16"
/>
<path stroke="#777777" vector-effect="non-scaling-stroke" d="
  M 351.05 193.38
  L 348.44 193.02"
/>
<path stroke="#777777" vector-effect="non-scaling-stroke" d="
  M 343.42 192.26
  Q 342.58 192.39 342.19 192.01"
/>
<path stroke="#777777" vector-effect="non-scaling-stroke" d="
  M 339.00 191.29
  Q 338.13 191.38 337.75 191.12"
/>
<path stroke="#777777" vector-effect="non-scaling-stroke" d="
  M 295.10 133.62
  L 284.93 113.21"
/>
</g>
<path fill="#000000" d="
  M 512.00 199.87
  L 512.00 203.09
  Q 511.13 207.74 508.02 210.76
  Q 453.16 264.24 398.30 317.72
  C 394.19 321.72 391.60 325.26 392.55 330.81
  Q 404.65 401.76 418.75 483.42
  Q 419.23 486.19 418.97 488.96
  C 418.36 495.55 412.08 500.21 405.64 500.08
  Q 402.85 500.03 399.02 498.00
  Q 332.23 462.73 261.87 425.89
  C 258.18 423.95 253.61 424.04 249.90 425.99
  Q 181.02 462.27 112.36 498.30
  C 101.94 503.77 91.18 495.66 93.19 483.97
  Q 105.96 409.63 119.39 331.20
  C 120.15 326.77 118.73 322.67 115.49 319.51
  Q 58.22 263.60 4.38 211.12
  Q 0.88 207.71 0.00 203.13
  L 0.00 199.72
  Q 1.28 193.48 6.07 190.47
  C 9.48 188.33 15.17 187.95 19.59 187.32
  Q 91.38 177.06 165.25 166.21
  C 169.73 165.55 173.43 162.94 175.39 158.95
  Q 209.93 88.88 244.03 19.86
  C 249.21 9.39 262.64 9.05 267.95 19.80
  Q 302.77 90.34 336.70 159.09
  C 338.60 162.94 342.31 165.54 346.46 166.15
  Q 420.52 176.90 500.63 188.56
  C 506.73 189.44 510.80 193.69 512.00 199.87
  Z
  M 174.37 191.10
  Q 173.54 191.38 173.26 191.18
  Q 171.44 191.16 169.68 191.73
  Q 169.61 191.75 169.61 191.82
  Q 169.62 191.95 169.76 192.02
  Q 169.06 192.46 168.27 192.25
  Q 165.14 191.93 162.14 192.94
  Q 162.11 192.95 162.12 192.92
  Q 162.13 192.92 162.13 192.91
  Q 162.12 192.89 162.15 192.88
  Q 162.92 192.77 163.56 193.05
  Q 162.39 193.41 161.26 193.27
  Q 159.25 192.94 157.15 193.60
  A 1.39 1.31 41.1 0 1 156.41 193.63
  Q 156.14 193.56 155.87 193.59
  A 0.13 0.13 0.0 0 0 155.87 193.85
  Q 156.27 193.87 156.54 194.05
  Q 155.16 194.47 154.00 194.28
  L 148.87 194.77
  Q 148.58 194.80 148.84 194.94
  Q 148.96 195.00 149.06 195.07
  Q 147.94 195.48 146.99 195.27
  Q 143.74 195.13 140.49 196.12
  C 138.99 196.57 137.23 196.34 135.60 196.60
  Q 134.78 196.73 135.60 196.87
  Q 135.85 196.91 136.05 197.06
  Q 135.21 197.38 134.22 197.27
  Q 134.20 197.10 134.25 196.99
  Q 134.35 196.78 134.24 196.80
  L 121.74 198.72
  Q 121.58 198.75 121.65 198.89
  Q 121.69 199.00 121.81 199.09
  L 119.97 199.40
  Q 119.92 198.96 119.00 199.10
  Q 116.98 199.42 114.93 199.63
  Q 114.28 199.69 114.88 199.93
  Q 115.04 200.00 115.29 200.07
  Q 114.06 200.40 113.00 200.29
  Q 110.00 200.16 107.41 200.78
  A 0.03 0.03 0.0 0 0 107.42 200.83
  Q 107.81 200.76 108.31 201.07
  L 105.95 201.41
  Q 105.85 200.79 105.50 200.87
  Q 102.96 201.52 101.03 201.64
  Q 100.06 201.71 101.01 201.93
  L 101.55 202.07
  L 98.96 202.42
  L 98.85 202.17
  Q 98.78 201.99 98.58 202.02
  L 87.75 203.63
  Q 87.62 203.65 87.59 203.78
  Q 87.57 203.90 87.54 204.03
  L 84.96 204.43
  Q 84.95 203.99 84.24 204.09
  Q 78.67 204.86 73.14 205.82
  Q 73.12 205.82 73.10 205.83
  Q 73.05 205.84 73.09 205.86
  Q 73.12 205.88 73.16 205.88
  Q 73.67 205.80 74.05 206.03
  Q 73.19 206.44 72.25 206.23
  Q 69.45 206.22 66.76 206.65
  Q 66.62 206.67 66.51 206.75
  Q 66.46 206.79 66.39 206.80
  Q 65.84 206.86 66.39 206.85
  Q 66.77 206.85 67.06 207.06
  Q 66.13 207.41 65.25 207.20
  Q 62.46 207.11 59.71 207.67
  Q 59.63 207.69 59.56 207.73
  Q 59.48 207.79 59.39 207.80
  Q 58.84 207.86 59.39 207.86
  Q 59.76 207.85 60.05 208.05
  Q 58.97 208.41 58.03 208.30
  Q 55.16 208.01 52.69 208.96
  Q 52.15 209.51 51.02 209.29
  Q 48.32 208.92 45.50 209.97
  Q 44.78 210.36 44.03 210.22
  Q 42.60 209.84 41.67 210.52
  Q 41.15 210.90 41.61 211.35
  Q 88.11 256.67 133.81 301.23
  Q 140.03 307.30 143.33 316.20
  Q 143.37 316.30 144.05 318.82
  Q 144.38 320.04 145.06 321.38
  Q 146.50 327.67 145.36 335.12
  Q 144.30 342.07 143.02 348.98
  Q 142.94 348.47 142.99 347.91
  Q 143.00 347.85 142.94 347.84
  Q 142.88 347.83 142.84 347.85
  Q 142.79 347.88 142.78 347.94
  Q 140.91 358.06 139.50 368.33
  L 139.07 372.15
  Q 138.49 370.06 138.51 374.13
  Q 138.64 376.02 137.97 377.53
  Q 136.87 379.89 137.20 382.33
  Q 137.34 383.22 137.07 384.01
  Q 136.81 383.48 136.91 382.88
  Q 136.92 382.86 136.90 382.87
  Q 136.90 382.87 136.91 382.87
  Q 136.91 382.88 136.91 382.89
  Q 135.97 385.45 136.20 388.25
  Q 136.41 389.37 135.95 389.73
  L 135.87 389.03
  Q 135.84 388.80 135.70 388.98
  Q 135.60 389.12 135.62 389.27
  Q 135.64 389.48 135.60 389.69
  Q 134.28 396.45 133.55 403.33
  L 131.03 418.79
  Q 130.87 418.36 130.88 417.95
  Q 130.88 417.91 130.87 417.95
  Q 129.99 420.46 130.19 423.34
  Q 130.40 424.38 129.99 424.97
  Q 129.90 424.47 129.98 423.90
  Q 130.00 423.76 129.86 423.80
  Q 129.75 423.82 129.72 424.00
  Q 128.36 431.10 127.53 438.33
  L 125.02 453.78
  Q 124.83 453.45 124.86 453.03
  Q 124.88 452.82 124.77 452.96
  Q 124.70 453.05 124.74 453.14
  Q 124.13 455.66 124.19 458.28
  L 123.85 460.26
  L 123.75 459.81
  Q 123.59 459.06 123.44 459.82
  Q 123.16 461.25 123.25 462.57
  Q 123.31 463.36 124.01 462.99
  Q 180.62 433.21 237.08 403.54
  Q 241.39 401.28 246.16 399.83
  C 247.15 399.53 248.32 399.72 249.12 399.14
  Q 249.50 398.87 249.97 398.86
  Q 253.25 398.81 256.88 398.69
  Q 260.31 398.58 263.31 399.21
  Q 268.62 400.32 273.72 402.96
  Q 283.32 407.93 292.76 412.86
  Q 293.26 413.13 293.57 412.68
  Q 294.31 413.01 293.75 413.13
  L 312.49 422.91
  Q 312.38 422.58 312.80 422.95
  Q 312.68 423.52 313.40 423.89
  Q 322.11 428.28 330.74 432.81
  Q 331.29 433.10 331.55 432.65
  Q 331.24 432.67 331.81 432.96
  Q 331.71 433.37 331.99 433.51
  Q 358.75 447.51 387.98 462.94
  Q 388.62 463.28 388.72 462.56
  Q 388.79 462.05 388.65 461.45
  A 3.50 3.24 -54.1 0 1 388.55 460.63
  Q 388.56 459.53 387.98 458.82
  Q 387.77 460.06 387.82 458.23
  Q 387.71 455.50 387.13 452.92
  A 0.01 0.00 40.3 0 0 387.12 452.92
  Q 387.23 453.53 386.94 454.01
  L 383.91 436.24
  Q 384.02 431.75 382.53 427.75
  L 380.31 414.71
  Q 380.62 413.27 380.17 412.06
  Q 380.13 411.96 380.15 412.06
  Q 380.22 412.54 379.93 413.06
  L 378.28 402.75
  Q 378.73 400.89 377.75 400.22
  L 376.35 392.21
  Q 376.65 389.34 375.51 386.73
  L 373.40 374.23
  Q 373.49 369.71 372.94 372.27
  L 372.36 368.24
  L 370.59 357.73
  Q 370.04 356.53 369.95 354.96
  Q 369.92 351.37 369.13 347.88
  Q 369.12 347.87 369.12 347.87
  Q 369.12 347.87 369.12 347.87
  Q 369.12 347.87 369.12 347.88
  Q 369.18 348.50 368.90 349.06
  L 368.33 345.21
  Q 368.61 343.50 368.14 341.96
  A 0.01 0.00 36.7 0 0 368.13 341.96
  Q 368.22 342.53 367.92 343.07
  L 367.39 339.24
  Q 367.50 334.73 366.93 337.28
  L 366.32 331.71
  L 366.38 323.98
  L 366.91 320.93
  Q 367.21 321.17 367.12 321.63
  Q 367.14 321.64 367.11 321.62
  Q 367.08 321.60 367.09 321.58
  Q 369.91 309.06 378.51 300.76
  Q 413.27 267.22 447.71 233.32
  Q 448.38 231.72 450.08 230.86
  L 470.29 211.36
  Q 470.68 210.99 470.29 210.62
  Q 469.43 209.82 467.87 210.21
  L 465.59 209.81
  L 460.64 208.98
  Q 460.62 208.97 460.62 208.99
  Q 460.58 209.10 460.53 209.22
  Q 459.55 209.38 458.93 209.03
  Q 459.36 208.79 459.81 208.87
  A 0.01 0.01 0.0 0 0 459.81 208.85
  Q 456.78 208.16 453.67 207.96
  C 452.43 207.88 451.39 207.26 450.07 207.31
  Q 448.75 207.35 447.57 207.05
  Q 445.74 206.59 443.98 206.47
  Q 442.22 206.34 440.53 206.02
  Q 437.48 205.44 434.30 205.14
  Q 434.16 205.13 434.28 205.20
  Q 434.41 205.28 434.49 205.40
  Q 432.77 205.45 431.53 204.94
  Q 429.94 204.00 427.41 204.35
  Q 425.71 204.55 424.47 203.90
  Q 422.70 203.14 420.34 203.14
  Q 420.22 203.14 420.31 203.21
  L 420.54 203.37
  Q 418.78 203.44 417.54 202.90
  Q 415.93 202.02 413.40 202.34
  Q 412.75 202.76 412.48 202.21
  Q 410.05 200.95 407.60 201.30
  Q 407.20 201.35 406.88 201.12
  Q 406.74 201.01 406.60 200.92
  Q 406.51 200.86 406.40 200.86
  Q 406.35 200.86 406.31 200.89
  Q 406.03 201.06 406.32 201.22
  Q 406.43 201.29 406.50 201.37
  Q 405.03 201.42 403.70 201.02
  Q 403.85 200.91 404.03 200.87
  Q 404.27 200.83 404.04 200.75
  Q 401.71 199.92 399.40 200.34
  Q 398.14 200.50 396.68 200.04
  Q 396.90 199.99 397.06 199.94
  Q 397.55 199.77 397.05 199.62
  Q 395.98 199.28 394.84 199.31
  Q 393.73 199.35 392.69 199.09
  Q 390.39 198.53 388.13 198.37
  Q 386.06 198.23 383.80 197.81
  Q 378.04 196.73 372.26 196.11
  Q 372.01 196.08 371.98 196.50
  Q 370.48 196.42 369.47 196.00
  Q 368.44 194.88 367.41 195.64
  L 362.54 194.92
  Q 360.38 194.11 357.86 194.11
  Q 357.70 194.11 357.82 194.21
  Q 357.91 194.29 357.97 194.42
  Q 356.79 194.60 357.00 194.16
  Q 354.36 192.92 351.38 193.00
  Q 351.23 193.00 351.15 193.12
  Q 351.08 193.25 351.05 193.38
  L 348.44 193.02
  Q 348.86 192.79 349.26 192.86
  A 0.01 0.00 51.0 0 0 349.26 192.85
  Q 346.51 191.92 343.42 192.26
  Q 342.58 192.39 342.19 192.01
  Q 342.35 191.91 342.53 191.87
  Q 342.79 191.83 342.55 191.74
  Q 340.72 191.01 339.00 191.29
  Q 338.13 191.38 337.75 191.12
  Q 336.93 190.24 335.59 189.85
  Q 334.24 189.45 332.97 188.92
  Q 325.35 185.71 319.12 178.82
  Q 315.96 175.34 311.27 165.82
  Q 303.30 149.67 295.10 133.62
  L 284.93 113.21
  L 256.21 54.73
  Q 255.96 54.21 255.71 54.72
  Q 228.24 110.24 199.02 169.55
  Q 191.25 185.32 174.26 190.63
  Q 173.98 190.72 174.17 190.95
  Q 174.24 191.03 174.37 191.10
  Z"
/>
<path fill="#eeeeee" d="
  M 284.93 113.21
  L 295.10 133.62
  Q 295.30 135.31 296.09 136.91
  Q 304.33 153.61 312.82 170.19
  Q 317.95 180.22 326.43 186.08
  Q 330.87 189.14 337.75 191.12
  Q 338.13 191.38 339.00 191.29
  L 342.19 192.01
  Q 342.58 192.39 343.42 192.26
  Q 345.87 193.05 348.44 193.02
  L 351.05 193.38
  L 357.00 194.16
  Q 356.79 194.60 357.97 194.42
  L 362.54 194.92
  L 367.41 195.64
  Q 368.41 196.07 369.47 196.00
  Q 370.48 196.42 371.98 196.50
  L 396.68 200.04
  Q 398.14 200.50 399.40 200.34
  Q 401.55 201.07 403.70 201.02
  Q 405.03 201.42 406.50 201.37
  L 412.48 202.21
  Q 412.75 202.76 413.40 202.34
  Q 415.49 202.99 417.54 202.90
  Q 418.78 203.44 420.54 203.37
  L 424.47 203.90
  Q 425.71 204.55 427.41 204.35
  Q 429.48 205.05 431.53 204.94
  Q 432.77 205.45 434.49 205.40
  L 458.93 209.03
  Q 459.55 209.38 460.53 209.22
  Q 463.02 209.98 465.59 209.81
  L 467.87 210.21
  L 468.70 211.00
  Q 469.11 211.39 468.72 211.79
  L 450.08 230.86
  Q 448.38 231.72 447.71 233.32
  Q 439.84 239.88 432.59 247.10
  C 422.00 257.65 411.70 268.21 400.55 278.53
  Q 388.70 289.49 377.19 301.56
  Q 374.58 304.30 372.84 306.95
  C 369.84 311.50 367.92 315.44 366.91 320.93
  L 366.38 323.98
  Q 365.62 327.86 366.32 331.71
  L 366.93 337.28
  L 367.39 339.24
  L 367.92 343.07
  L 368.33 345.21
  L 368.90 349.06
  L 369.95 354.96
  Q 370.04 356.53 370.59 357.73
  L 372.36 368.24
  L 372.94 372.27
  L 373.40 374.23
  L 375.51 386.73
  L 376.35 392.21
  L 377.75 400.22
  Q 377.80 401.59 378.28 402.75
  L 379.93 413.06
  Q 379.97 413.94 380.31 414.71
  L 382.53 427.75
  L 383.91 436.24
  L 386.94 454.01
  L 387.82 458.23
  Q 387.77 460.06 387.98 458.82
  L 388.00 461.41
  Q 388.00 462.05 387.43 461.75
  L 331.81 432.96
  Q 331.24 432.67 331.55 432.65
  L 312.80 422.95
  Q 312.38 422.58 312.49 422.91
  Q 303.54 417.38 293.75 413.13
  Q 294.31 413.01 293.57 412.68
  Q 274.84 402.15 268.81 400.16
  Q 257.63 396.46 246.70 399.19
  Q 241.99 400.37 235.60 403.65
  Q 230.11 406.47 224.96 409.22
  C 197.87 423.71 171.12 437.45 143.79 452.01
  Q 133.12 457.69 124.70 461.74
  A 0.60 0.60 0.0 0 1 123.92 461.50
  Q 123.67 461.09 123.85 460.26
  L 124.19 458.28
  L 125.02 453.78
  L 127.53 438.33
  L 129.99 424.97
  Q 130.40 424.38 130.19 423.34
  L 131.03 418.79
  L 133.55 403.33
  L 135.95 389.73
  Q 136.41 389.37 136.20 388.25
  L 137.07 384.01
  Q 137.34 383.22 137.20 382.33
  L 137.97 377.53
  Q 138.64 376.02 138.51 374.13
  Q 139.05 373.07 139.07 372.15
  L 139.50 368.33
  L 143.02 348.98
  Q 144.30 342.07 145.36 335.12
  Q 146.50 327.67 145.06 321.38
  Q 143.97 314.63 141.74 310.75
  Q 139.00 305.97 134.56 301.13
  Q 134.53 301.10 126.13 292.67
  Q 119.34 285.87 112.38 279.10
  C 110.57 277.34 108.49 275.96 106.70 274.18
  Q 91.28 258.89 76.17 243.78
  C 72.88 240.49 69.12 237.63 65.83 234.40
  Q 54.71 223.46 43.37 211.97
  Q 43.03 211.63 43.24 211.20
  Q 43.49 210.71 44.03 210.22
  Q 44.78 210.36 45.50 209.97
  L 51.02 209.29
  Q 52.15 209.51 52.69 208.96
  L 58.03 208.30
  Q 58.97 208.41 60.05 208.05
  L 65.25 207.20
  Q 66.13 207.41 67.06 207.06
  L 72.25 206.23
  Q 73.19 206.44 74.05 206.03
  L 84.96 204.43
  L 87.54 204.03
  L 98.96 202.42
  L 101.55 202.07
  L 105.95 201.41
  L 108.31 201.07
  L 113.00 200.29
  Q 114.06 200.40 115.29 200.07
  L 119.97 199.40
  L 121.81 199.09
  L 134.22 197.27
  Q 135.21 197.38 136.05 197.06
  L 146.99 195.27
  Q 147.94 195.48 149.06 195.07
  L 154.00 194.28
  Q 155.16 194.47 156.54 194.05
  L 161.26 193.27
  Q 162.39 193.41 163.56 193.05
  L 168.27 192.25
  Q 169.06 192.46 169.76 192.02
  L 173.26 191.18
  Q 173.54 191.38 174.37 191.10
  Q 185.48 187.87 192.94 179.62
  Q 197.39 174.71 201.78 165.50
  Q 207.57 153.35 213.28 142.23
  C 216.78 135.41 219.71 128.21 223.19 121.27
  Q 239.17 89.42 255.24 57.37
  A 0.78 0.78 0.0 0 1 255.92 56.94
  Q 256.20 56.94 256.45 57.03
  Q 256.81 57.15 256.98 57.50
  L 284.93 113.21
  Z"
/>
</svg>
