<?xml version="1.0" encoding="UTF-8" standalone="no"?>
<!DOCTYPE svg PUBLIC "-//W3C//DTD SVG 1.1//EN" "http://www.w3.org/Graphics/SVG/1.1/DTD/svg11.dtd">
<svg xmlns="http://www.w3.org/2000/svg" version="1.1" viewBox="0.00 0.00 512.00 512.00">
<path stroke="#133245" stroke-width="2.00" fill="none" stroke-linecap="butt" vector-effect="non-scaling-stroke" d="
  M 100.87 201.57
  Q 71.68 205.84 41.21 210.18
  A 0.25 0.25 0.0 0 0 41.06 210.60
  Q 56.17 226.06 70.23 239.35
  C 86.05 254.31 101.05 270.14 117.16 285.08
  Q 123.14 290.62 129.98 297.29
  Q 136.22 303.37 139.75 308.97
  C 146.70 319.98 145.54 332.04 143.38 344.52
  Q 134.41 396.46 124.58 452.73
  Q 123.83 457.02 123.07 461.26
  Q 122.94 461.99 123.04 462.51
  A 0.75 0.75 0.0 0 0 124.13 463.03
  C 140.05 454.49 156.42 446.38 172.35 437.84
  C 193.11 426.72 215.45 415.19 236.93 403.67
  C 247.29 398.11 260.97 396.94 271.88 402.36
  Q 292.64 412.68 314.10 424.11
  Q 322.90 428.81 331.77 433.44
  Q 355.78 446.01 385.15 461.53
  Q 386.45 462.22 388.04 462.88
  A 0.60 0.59 6.6 0 0 388.86 462.24
  Q 385.94 444.36 382.51 424.72
  Q 378.09 399.35 375.15 381.48
  C 373.02 368.49 370.62 355.98 368.34 342.59
  Q 366.82 333.65 367.04 325.95
  Q 367.24 319.01 370.88 311.36
  Q 373.39 306.06 379.48 299.97
  C 387.91 291.53 396.48 283.89 404.64 275.81
  Q 414.53 266.00 424.39 256.31
  C 426.89 253.84 429.98 251.37 432.57 248.80
  Q 449.94 231.56 470.59 211.05
  Q 471.43 210.21 470.25 210.03
  Q 469.59 209.94 468.76 209.82
  Q 368.92 195.63 350.24 192.74
  Q 343.54 191.71 339.72 190.91
  Q 328.65 188.61 320.46 180.12
  Q 316.35 175.85 311.19 165.54
  Q 294.71 132.59 281.18 104.54
  C 273.20 87.99 264.95 71.97 256.63 55.14
  A 0.70 0.70 0.0 0 0 255.38 55.14
  C 243.08 79.82 230.62 104.11 218.85 128.71
  Q 210.92 145.27 201.15 164.96
  Q 195.89 175.56 191.82 179.94
  Q 182.88 189.56 167.75 191.77
  Q 134.31 196.67 100.87 201.57"
/>
<path fill="#000000" d="
  M 512.00 199.87
  L 512.00 203.09
  Q 511.13 207.74 508.02 210.76
  Q 453.16 264.24 398.30 317.72
  C 394.29 321.62 391.62 325.20 392.53 330.57
  Q 405.27 405.47 418.70 483.11
  Q 419.22 486.09 419.00 488.75
  C 418.24 497.80 407.87 502.63 400.07 498.52
  Q 329.73 461.51 262.17 426.01
  C 258.25 423.95 253.97 423.96 250.00 426.04
  Q 181.64 461.80 113.40 497.79
  C 108.28 500.50 103.10 501.15 98.31 497.69
  Q 92.01 493.15 93.09 485.23
  Q 93.92 479.07 119.45 330.93
  C 120.18 326.71 118.58 322.52 115.49 319.50
  Q 61.80 267.08 4.22 211.04
  Q 0.90 207.81 0.00 203.13
  L 0.00 199.72
  Q 2.12 189.96 11.76 188.56
  Q 90.24 177.15 165.68 166.16
  Q 172.23 165.21 175.44 158.73
  Q 209.23 90.72 243.07 21.58
  Q 245.43 16.76 247.94 14.72
  C 252.71 10.84 260.31 11.00 264.80 15.29
  Q 266.67 17.07 268.51 20.82
  Q 302.27 89.44 336.83 159.31
  C 338.89 163.47 342.85 165.67 347.33 166.32
  Q 426.76 177.78 498.07 188.13
  C 505.71 189.24 510.48 192.06 512.00 199.87
  Z
  M 100.87 201.57
  Q 71.68 205.84 41.21 210.18
  A 0.25 0.25 0.0 0 0 41.06 210.60
  Q 56.17 226.06 70.23 239.35
  C 86.05 254.31 101.05 270.14 117.16 285.08
  Q 123.14 290.62 129.98 297.29
  Q 136.22 303.37 139.75 308.97
  C 146.70 319.98 145.54 332.04 143.38 344.52
  Q 134.41 396.46 124.58 452.73
  Q 123.83 457.02 123.07 461.26
  Q 122.94 461.99 123.04 462.51
  A 0.75 0.75 0.0 0 0 124.13 463.03
  C 140.05 454.49 156.42 446.38 172.35 437.84
  C 193.11 426.72 215.45 415.19 236.93 403.67
  C 247.29 398.11 260.97 396.94 271.88 402.36
  Q 292.64 412.68 314.10 424.11
  Q 322.90 428.81 331.77 433.44
  Q 355.78 446.01 385.15 461.53
  Q 386.45 462.22 388.04 462.88
  A 0.60 0.59 6.6 0 0 388.86 462.24
  Q 385.94 444.36 382.51 424.72
  Q 378.09 399.35 375.15 381.48
  C 373.02 368.49 370.62 355.98 368.34 342.59
  Q 366.82 333.65 367.04 325.95
  Q 367.24 319.01 370.88 311.36
  Q 373.39 306.06 379.48 299.97
  C 387.91 291.53 396.48 283.89 404.64 275.81
  Q 414.53 266.00 424.39 256.31
  C 426.89 253.84 429.98 251.37 432.57 248.80
  Q 449.94 231.56 470.59 211.05
  Q 471.43 210.21 470.25 210.03
  Q 469.59 209.94 468.76 209.82
  Q 368.92 195.63 350.24 192.74
  Q 343.54 191.71 339.72 190.91
  Q 328.65 188.61 320.46 180.12
  Q 316.35 175.85 311.19 165.54
  Q 294.71 132.59 281.18 104.54
  C 273.20 87.99 264.95 71.97 256.63 55.14
  A 0.70 0.70 0.0 0 0 255.38 55.14
  C 243.08 79.82 230.62 104.11 218.85 128.71
  Q 210.92 145.27 201.15 164.96
  Q 195.89 175.56 191.82 179.94
  Q 182.88 189.56 167.75 191.77
  Q 134.31 196.67 100.87 201.57
  Z"
/>
<path fill="#256389" d="
  M 100.87 201.57
  Q 134.31 196.67 167.75 191.77
  Q 182.88 189.56 191.82 179.94
  Q 195.89 175.56 201.15 164.96
  Q 210.92 145.27 218.85 128.71
  C 230.62 104.11 243.08 79.82 255.38 55.14
  A 0.70 0.70 0.0 0 1 256.63 55.14
  C 264.95 71.97 273.20 87.99 281.18 104.54
  Q 294.71 132.59 311.19 165.54
  Q 316.35 175.85 320.46 180.12
  Q 328.65 188.61 339.72 190.91
  Q 343.54 191.71 350.24 192.74
  Q 368.92 195.63 468.76 209.82
  Q 469.59 209.94 470.25 210.03
  Q 471.43 210.21 470.59 211.05
  Q 449.94 231.56 432.57 248.80
  C 429.98 251.37 426.89 253.84 424.39 256.31
  Q 414.53 266.00 404.64 275.81
  C 396.48 283.89 387.91 291.53 379.48 299.97
  Q 373.39 306.06 370.88 311.36
  Q 367.24 319.01 367.04 325.95
  Q 366.82 333.65 368.34 342.59
  C 370.62 355.98 373.02 368.49 375.15 381.48
  Q 378.09 399.35 382.51 424.72
  Q 385.94 444.36 388.86 462.24
  A 0.60 0.59 6.6 0 1 388.04 462.88
  Q 386.45 462.22 385.15 461.53
  Q 355.78 446.01 331.77 433.44
  Q 322.90 428.81 314.10 424.11
  Q 292.64 412.68 271.88 402.36
  C 260.97 396.94 247.29 398.11 236.93 403.67
  C 215.45 415.19 193.11 426.72 172.35 437.84
  C 156.42 446.38 140.05 454.49 124.13 463.03
  A 0.75 0.75 0.0 0 1 123.04 462.51
  Q 122.94 461.99 123.07 461.26
  Q 123.83 457.02 124.58 452.73
  Q 134.41 396.46 143.38 344.52
  C 145.54 332.04 146.70 319.98 139.75 308.97
  Q 136.22 303.37 129.98 297.29
  Q 123.14 290.62 117.16 285.08
  C 101.05 270.14 86.05 254.31 70.23 239.35
  Q 56.17 226.06 41.06 210.60
  A 0.25 0.25 0.0 0 1 41.21 210.18
  Q 71.68 205.84 100.87 201.57
  Z"
/>
</svg>
