<?xml version="1.0" encoding="UTF-8" standalone="no"?>
<!DOCTYPE svg PUBLIC "-//W3C//DTD SVG 1.1//EN" "http://www.w3.org/Graphics/SVG/1.1/DTD/svg11.dtd">
<svg xmlns="http://www.w3.org/2000/svg" version="1.1" viewBox="0.00 0.00 512.00 512.00">
<path fill="#000000" d="
  M 251.34 0.00
  L 260.83 0.00
  Q 317.52 1.29 366.66 25.11
  Q 412.86 47.50 445.79 84.21
  Q 509.10 154.76 512.00 251.29
  L 512.00 260.84
  Q 510.69 318.12 486.40 367.67
  Q 464.03 413.32 427.67 445.91
  Q 357.14 509.11 260.69 512.00
  L 251.17 512.00
  Q 187.50 510.52 133.61 480.88
  Q 88.96 456.33 57.88 418.12
  Q 2.48 350.01 0.00 260.68
  L 0.00 251.13
  Q 2.94 154.99 65.86 84.59
  Q 98.52 48.05 144.32 25.60
  Q 193.97 1.26 251.34 0.00
  Z
  M 488.71 256.00
  A 232.71 232.71 0.0 0 0 256.00 23.29
  A 232.71 232.71 0.0 0 0 23.29 256.00
  A 232.71 232.71 0.0 0 0 256.00 488.71
  A 232.71 232.71 0.0 0 0 488.71 256.00
  Z"
/>
<path fill="#000000" d="
  M 279.27 256.74
  L 279.27 360.23
  Q 279.27 360.74 278.76 360.74
  L 232.98 360.74
  A 0.26 0.25 -90.0 0 1 232.73 360.48
  L 232.73 256.24
  A 0.24 0.24 0.0 0 0 232.49 256.00
  L 209.74 256.00
  A 0.26 0.26 0.0 0 1 209.48 255.74
  L 209.48 221.67
  Q 209.48 221.07 210.08 221.07
  L 232.20 221.07
  Q 232.71 221.07 232.71 220.56
  Q 232.70 208.83 232.81 196.76
  Q 232.90 186.26 235.70 177.68
  Q 241.61 159.61 260.29 154.36
  C 264.53 153.17 269.12 152.13 273.52 151.87
  C 277.96 151.60 282.42 151.24 286.85 151.25
  Q 299.78 151.28 313.76 151.26
  A 0.45 0.45 0.0 0 1 314.21 151.71
  L 314.21 185.74
  Q 314.21 186.28 313.67 186.28
  Q 305.86 186.34 297.47 186.25
  C 292.08 186.20 283.55 186.08 280.79 191.31
  Q 279.44 193.86 279.38 197.62
  Q 279.19 209.86 279.28 220.53
  Q 279.28 221.07 279.82 221.07
  L 313.75 221.07
  A 0.39 0.39 0.0 0 1 314.14 221.50
  L 310.27 255.52
  Q 310.22 256.00 309.73 256.00
  L 280.01 256.00
  Q 279.27 256.00 279.27 256.74
  Z"
/>
</svg>
