<?xml version="1.0" encoding="UTF-8" standalone="no"?>
<!DOCTYPE svg PUBLIC "-//W3C//DTD SVG 1.1//EN" "http://www.w3.org/Graphics/SVG/1.1/DTD/svg11.dtd">
<svg xmlns="http://www.w3.org/2000/svg" version="1.1" viewBox="0.00 0.00 512.00 512.00">
<path fill="#000000" d="
  M 252.34 0.00
  L 261.84 0.00
  Q 318.88 1.33 368.22 25.57
  Q 413.53 47.83 446.00 84.00
  Q 509.06 154.26 512.00 250.29
  L 512.00 259.84
  Q 510.67 316.29 486.88 365.65
  C 457.97 425.65 407.06 472.91 344.74 496.18
  Q 305.12 510.98 261.66 512.00
  L 252.17 512.00
  Q 195.40 510.58 146.10 486.38
  C 85.67 456.73 39.02 405.37 15.55 342.24
  Q 1.04 303.23 0.00 259.67
  L 0.00 250.16
  Q 1.05 207.04 15.34 168.56
  C 38.79 105.39 85.71 54.33 146.36 25.12
  Q 195.82 1.29 252.34 0.00
  Z
  M 286.89 120.00
  A 29.89 29.89 0.0 0 0 257.00 90.11
  A 29.89 29.89 0.0 0 0 227.11 120.00
  A 29.89 29.89 0.0 0 0 257.00 149.89
  A 29.89 29.89 0.0 0 0 286.89 120.00
  Z
  M 243.10 213.57
  Q 232.17 219.39 228.26 231.64
  Q 226.88 235.96 226.92 248.88
  Q 227.12 318.22 226.93 386.32
  Q 226.91 395.60 228.24 400.27
  C 234.51 422.24 262.24 429.14 278.33 412.92
  Q 286.99 404.19 286.99 390.65
  Q 287.00 314.04 287.03 242.69
  Q 287.03 236.21 285.77 231.79
  C 280.66 213.71 259.80 204.67 243.10 213.57
  Z"
/>
</svg>
