<?xml version="1.0" encoding="UTF-8" standalone="no"?>
<!DOCTYPE svg PUBLIC "-//W3C//DTD SVG 1.1//EN" "http://www.w3.org/Graphics/SVG/1.1/DTD/svg11.dtd">
<svg xmlns="http://www.w3.org/2000/svg" version="1.1" viewBox="0.00 0.00 512.00 512.00">
<path fill="#000000" d="
  M 251.34 0.00
  L 260.83 0.00
  Q 317.52 1.29 366.66 25.11
  Q 412.86 47.50 445.79 84.21
  Q 509.10 154.76 512.00 251.29
  L 512.00 260.84
  Q 510.69 318.12 486.40 367.67
  Q 464.03 413.32 427.67 445.91
  Q 357.14 509.11 260.69 512.00
  L 251.17 512.00
  Q 187.50 510.52 133.61 480.88
  Q 88.96 456.33 57.88 418.12
  Q 2.48 350.01 0.00 260.68
  L 0.00 251.13
  Q 2.94 154.99 65.86 84.59
  Q 98.52 48.05 144.32 25.60
  Q 193.97 1.26 251.34 0.00
  Z
  M 488.71 256.00
  A 232.71 232.71 0.0 0 0 256.00 23.29
  A 232.71 232.71 0.0 0 0 23.29 256.00
  A 232.71 232.71 0.0 0 0 256.00 488.71
  A 232.71 232.71 0.0 0 0 488.71 256.00
  Z"
/>
<path fill="#000000" d="
  M 372.2487 325.5930
  A 46.98 46.98 0.0 0 1 325.1868 372.4909
  L 186.4070 372.2487
  A 46.98 46.98 0.0 0 1 139.5091 325.1868
  L 139.7513 186.4070
  A 46.98 46.98 0.0 0 1 186.8132 139.5091
  L 325.5930 139.7513
  A 46.98 46.98 0.0 0 1 372.4909 186.8132
  L 372.2487 325.5930
  Z
  M 337.47 175.11
  A 0.58 0.58 0.0 0 0 336.89 174.53
  L 303.09 174.53
  A 0.58 0.58 0.0 0 0 302.51 175.11
  L 302.51 208.89
  A 0.58 0.58 0.0 0 0 303.09 209.47
  L 336.89 209.47
  A 0.58 0.58 0.0 0 0 337.47 208.89
  L 337.47 175.11
  Z
  M 302.40 256.00
  A 46.40 46.40 0.0 0 0 256.00 209.60
  A 46.40 46.40 0.0 0 0 209.60 256.00
  A 46.40 46.40 0.0 0 0 256.00 302.40
  A 46.40 46.40 0.0 0 0 302.40 256.00
  Z
  M 325.73 258.78
  C 324.33 307.22 275.47 339.83 230.27 321.83
  Q 215.93 316.11 206.24 305.90
  Q 181.99 280.34 187.19 244.88
  A 0.44 0.43 4.4 0 0 186.75 244.38
  L 163.44 244.37
  Q 162.91 244.37 162.91 244.90
  Q 162.96 281.87 162.92 324.18
  Q 162.91 335.89 170.00 342.50
  Q 177.09 349.09 187.08 349.08
  Q 255.48 348.99 320.90 349.16
  Q 328.34 349.18 331.97 348.21
  C 342.45 345.42 349.05 335.92 349.06 325.04
  Q 349.09 285.40 349.06 244.79
  A 0.42 0.41 90.0 0 0 348.65 244.37
  L 325.27 244.38
  Q 324.65 244.38 324.71 244.99
  C 325.16 249.67 325.86 254.18 325.73 258.78
  Z"
/>
</svg>
