<?xml version="1.0" encoding="UTF-8" standalone="no"?>
<!DOCTYPE svg PUBLIC "-//W3C//DTD SVG 1.1//EN" "http://www.w3.org/Graphics/SVG/1.1/DTD/svg11.dtd">
<svg xmlns="http://www.w3.org/2000/svg" version="1.1" viewBox="0.00 0.00 201.00 147.00">
<g stroke-width="2.00" fill="none" stroke-linecap="butt">
<path stroke="#f38e91" vector-effect="non-scaling-stroke" d="
  M 61.23 123.77
  C 73.13 120.57 84.77 117.66 96.28 114.32
  Q 98.34 113.72 99.94 112.11
  Q 134.73 77.12 168.96 42.86
  A 3.41 3.40 45.2 0 0 168.97 38.06
  L 142.71 11.53
  A 3.33 3.33 0.0 0 0 137.98 11.52
  L 67.05 82.76
  Q 66.65 83.16 66.50 83.71
  L 57.10 119.67
  A 3.37 3.37 0.0 0 0 61.23 123.77"
/>
<path stroke="#f38e91" vector-effect="non-scaling-stroke" d="
  M 74.77 90.73
  A 0.32 0.32 0.0 0 0 74.24 90.88
  L 68.78 111.39
  A 0.32 0.32 0.0 0 0 69.17 111.79
  L 89.96 106.33
  A 0.32 0.32 0.0 0 0 90.10 105.80
  L 74.77 90.73"
/>
</g>
<path fill="#ffffff" d="
  M 0.00 0.00
  L 201.00 0.00
  L 201.00 147.00
  L 0.00 147.00
  L 0.00 0.00
  Z
  M 61.23 123.77
  C 73.13 120.57 84.77 117.66 96.28 114.32
  Q 98.34 113.72 99.94 112.11
  Q 134.73 77.12 168.96 42.86
  A 3.41 3.40 45.2 0 0 168.97 38.06
  L 142.71 11.53
  A 3.33 3.33 0.0 0 0 137.98 11.52
  L 67.05 82.76
  Q 66.65 83.16 66.50 83.71
  L 57.10 119.67
  A 3.37 3.37 0.0 0 0 61.23 123.77
  Z"
/>
<path fill="#e61c23" d="
  M 96.28 114.32
  C 84.77 117.66 73.13 120.57 61.23 123.77
  A 3.37 3.37 0.0 0 1 57.10 119.67
  L 66.50 83.71
  Q 66.65 83.16 67.05 82.76
  L 137.98 11.52
  A 3.33 3.33 0.0 0 1 142.71 11.53
  L 168.97 38.06
  A 3.41 3.40 45.2 0 1 168.96 42.86
  Q 134.73 77.12 99.94 112.11
  Q 98.34 113.72 96.28 114.32
  Z
  M 74.77 90.73
  A 0.32 0.32 0.0 0 0 74.24 90.88
  L 68.78 111.39
  A 0.32 0.32 0.0 0 0 69.17 111.79
  L 89.96 106.33
  A 0.32 0.32 0.0 0 0 90.10 105.80
  L 74.77 90.73
  Z"
/>
<path fill="#ffffff" d="
  M 74.77 90.73
  L 90.10 105.80
  A 0.32 0.32 0.0 0 1 89.96 106.33
  L 69.17 111.79
  A 0.32 0.32 0.0 0 1 68.78 111.39
  L 74.24 90.88
  A 0.32 0.32 0.0 0 1 74.77 90.73
  Z"
/>
</svg>
