<?xml version="1.0" encoding="UTF-8" standalone="no"?>
<!DOCTYPE svg PUBLIC "-//W3C//DTD SVG 1.1//EN" "http://www.w3.org/Graphics/SVG/1.1/DTD/svg11.dtd">
<svg xmlns="http://www.w3.org/2000/svg" version="1.1" viewBox="0.00 0.00 15.00 15.00">
<path stroke="#808080" stroke-width="2.00" fill="none" stroke-linecap="butt" vector-effect="non-scaling-stroke" d="
  M 9.98 5.78
  A 1.00 1.00 0.0 0 1 9.20 5.00
  L 8.47 1.40
  A 1.00 1.00 0.0 0 0 6.51 1.40
  L 5.78 5.00
  A 1.00 1.00 0.0 0 1 5.00 5.78
  L 1.40 6.51
  A 1.00 1.00 0.0 0 0 1.40 8.47
  L 5.00 9.20
  A 1.00 1.00 0.0 0 1 5.78 9.98
  L 6.51 13.58
  A 1.00 1.00 0.0 0 0 8.47 13.58
  L 9.20 9.98
  A 1.00 1.00 0.0 0 1 9.98 9.20
  L 13.58 8.47
  A 1.00 1.00 0.0 0 0 13.58 6.51
  L 9.98 5.78"
/>
<path fill="#ffffff" d="
  M 0.00 0.00
  L 15.00 0.00
  L 15.00 15.00
  L 0.00 15.00
  L 0.00 0.00
  Z
  M 9.98 5.78
  A 1.00 1.00 0.0 0 1 9.20 5.00
  L 8.47 1.40
  A 1.00 1.00 0.0 0 0 6.51 1.40
  L 5.78 5.00
  A 1.00 1.00 0.0 0 1 5.00 5.78
  L 1.40 6.51
  A 1.00 1.00 0.0 0 0 1.40 8.47
  L 5.00 9.20
  A 1.00 1.00 0.0 0 1 5.78 9.98
  L 6.51 13.58
  A 1.00 1.00 0.0 0 0 8.47 13.58
  L 9.20 9.98
  A 1.00 1.00 0.0 0 1 9.98 9.20
  L 13.58 8.47
  A 1.00 1.00 0.0 0 0 13.58 6.51
  L 9.98 5.78
  Z"
/>
<path fill="#000000" d="
  M 9.98 5.78
  L 13.58 6.51
  A 1.00 1.00 0.0 0 1 13.58 8.47
  L 9.98 9.20
  A 1.00 1.00 0.0 0 0 9.20 9.98
  L 8.47 13.58
  A 1.00 1.00 0.0 0 1 6.51 13.58
  L 5.78 9.98
  A 1.00 1.00 0.0 0 0 5.00 9.20
  L 1.40 8.47
  A 1.00 1.00 0.0 0 1 1.40 6.51
  L 5.00 5.78
  A 1.00 1.00 0.0 0 0 5.78 5.00
  L 6.51 1.40
  A 1.00 1.00 0.0 0 1 8.47 1.40
  L 9.20 5.00
  A 1.00 1.00 0.0 0 0 9.98 5.78
  Z"
/>
</svg>
