<?xml version="1.0" encoding="UTF-8" standalone="no"?>
<!DOCTYPE svg PUBLIC "-//W3C//DTD SVG 1.1//EN" "http://www.w3.org/Graphics/SVG/1.1/DTD/svg11.dtd">
<svg xmlns="http://www.w3.org/2000/svg" version="1.1" viewBox="0.00 0.00 15.00 15.00">
<path stroke="#808080" stroke-width="2.00" fill="none" stroke-linecap="butt" vector-effect="non-scaling-stroke" d="
  M 14.3405 7.3639
  A 1.35 1.35 0.0 0 0 12.9952 6.0092
  L 1.9953 5.9708
  A 1.35 1.35 0.0 0 0 0.6406 7.3161
  L 0.6395 7.6161
  A 1.35 1.35 0.0 0 0 1.9848 8.9708
  L 12.9847 9.0092
  A 1.35 1.35 0.0 0 0 14.3394 7.6639
  L 14.3405 7.3639"
/>
<path fill="#ffffff" d="
  M 0.00 0.00
  L 15.00 0.00
  L 15.00 15.00
  L 0.00 15.00
  L 0.00 0.00
  Z
  M 14.3405 7.3639
  A 1.35 1.35 0.0 0 0 12.9952 6.0092
  L 1.9953 5.9708
  A 1.35 1.35 0.0 0 0 0.6406 7.3161
  L 0.6395 7.6161
  A 1.35 1.35 0.0 0 0 1.9848 8.9708
  L 12.9847 9.0092
  A 1.35 1.35 0.0 0 0 14.3394 7.6639
  L 14.3405 7.3639
  Z"
/>
<rect fill="#010101" x="-6.85" y="-1.50" transform="translate(7.49,7.49) rotate(0.2)" width="13.70" height="3.00" rx="1.35"/>
</svg>
