<?xml version="1.0" encoding="UTF-8" standalone="no"?>
<!DOCTYPE svg PUBLIC "-//W3C//DTD SVG 1.1//EN" "http://www.w3.org/Graphics/SVG/1.1/DTD/svg11.dtd">
<svg xmlns="http://www.w3.org/2000/svg" version="1.1" viewBox="0.00 0.00 512.00 512.00">
<path fill="#000000" d="
  M 251.34 0.00
  L 260.83 0.00
  Q 317.52 1.29 366.66 25.11
  Q 412.86 47.50 445.79 84.21
  Q 509.10 154.76 512.00 251.29
  L 512.00 260.84
  Q 510.69 318.12 486.40 367.67
  Q 464.03 413.32 427.67 445.91
  Q 357.14 509.11 260.69 512.00
  L 251.17 512.00
  Q 187.50 510.52 133.61 480.88
  Q 88.96 456.33 57.88 418.12
  Q 2.48 350.01 0.00 260.68
  L 0.00 251.13
  Q 2.94 154.99 65.86 84.59
  Q 98.52 48.05 144.32 25.60
  Q 193.97 1.26 251.34 0.00
  Z
  M 488.71 256.00
  A 232.71 232.71 0.0 0 0 256.00 23.29
  A 232.71 232.71 0.0 0 0 23.29 256.00
  A 232.71 232.71 0.0 0 0 256.00 488.71
  A 232.71 232.71 0.0 0 0 488.71 256.00
  Z"
/>
<path fill="#000000" d="
  M 197.28 274.39
  Q 177.99 269.68 167.61 253.01
  Q 160.95 242.30 160.67 228.64
  A 0.57 0.57 0.0 0 1 161.51 228.12
  Q 170.51 232.92 181.26 233.56
  Q 182.13 233.61 181.42 233.11
  C 161.34 218.84 155.08 193.66 167.23 171.87
  Q 167.51 171.35 167.91 171.79
  C 171.77 175.95 175.53 180.31 179.86 184.25
  Q 216.00 217.17 265.32 220.32
  Q 265.99 220.37 265.83 219.71
  Q 264.67 215.15 264.75 210.11
  Q 265.00 195.19 273.38 183.31
  C 282.11 170.93 296.10 163.60 311.20 163.28
  Q 321.46 163.06 330.52 166.84
  Q 340.20 170.88 346.94 177.77
  A 0.53 0.52 -27.3 0 0 347.43 177.92
  Q 363.42 174.67 376.84 166.76
  Q 377.52 166.36 377.25 167.10
  Q 371.54 182.86 357.66 191.62
  Q 356.25 192.51 357.91 192.29
  C 366.35 191.18 374.96 188.77 383.07 185.38
  Q 383.94 185.02 383.41 185.80
  Q 374.28 199.16 361.19 208.92
  Q 360.76 209.24 360.77 209.76
  Q 360.82 221.68 359.75 230.99
  C 357.91 246.88 352.88 263.45 345.08 277.93
  Q 325.20 314.84 288.14 334.15
  C 245.85 356.19 192.27 353.60 152.14 328.37
  Q 151.41 327.91 152.27 327.96
  C 156.64 328.22 161.18 328.69 165.59 328.53
  Q 196.43 327.34 221.18 308.75
  Q 221.86 308.24 221.01 308.19
  C 200.78 307.04 184.63 295.20 177.62 276.24
  Q 177.37 275.57 178.07 275.71
  Q 186.94 277.45 197.27 275.21
  Q 199.07 274.82 197.28 274.39
  Z"
/>
</svg>
