<?xml version="1.0" encoding="UTF-8" standalone="no"?>
<!DOCTYPE svg PUBLIC "-//W3C//DTD SVG 1.1//EN" "http://www.w3.org/Graphics/SVG/1.1/DTD/svg11.dtd">
<svg xmlns="http://www.w3.org/2000/svg" version="1.1" viewBox="0.00 0.00 500.00 500.00">
<path fill="#000000" d="
  M 347.16 304.13
  C 318.51 364.71 286.08 422.92 250.44 480.55
  A 0.49 0.48 -44.8 0 1 249.61 480.55
  Q 215.98 426.15 186.12 370.45
  Q 160.61 322.86 140.03 275.22
  Q 125.87 242.45 116.77 211.51
  C 113.42 200.13 110.19 186.48 108.92 174.31
  Q 104.72 133.89 123.11 97.18
  C 158.19 27.16 243.41 -1.27 313.54 33.83
  Q 345.01 49.58 365.71 78.66
  C 386.86 108.36 396.38 146.22 389.88 182.63
  Q 384.99 210.06 374.81 237.41
  Q 360.33 276.31 347.16 304.13
  Z
  M 331.14 159.16
  A 82.73 82.73 0.0 0 0 248.41 76.43
  A 82.73 82.73 0.0 0 0 165.68 159.16
  A 82.73 82.73 0.0 0 0 248.41 241.89
  A 82.73 82.73 0.0 0 0 331.14 159.16
  Z"
/>
</svg>
