<?xml version="1.0" encoding="UTF-8" standalone="no"?>
<!DOCTYPE svg PUBLIC "-//W3C//DTD SVG 1.1//EN" "http://www.w3.org/Graphics/SVG/1.1/DTD/svg11.dtd">
<svg xmlns="http://www.w3.org/2000/svg" version="1.1" viewBox="0.00 0.00 512.00 512.00">
<path fill="#000000" d="
  M 249.57 0.00
  L 255.26 0.00
  Q 259.12 0.37 262.98 0.65
  Q 295.22 2.98 320.56 20.45
  C 347.48 39.03 367.10 66.45 373.27 98.67
  C 379.28 130.09 373.86 163.46 356.01 190.26
  C 337.80 217.61 309.65 238.03 277.27 244.17
  Q 246.26 250.05 216.59 241.52
  C 186.02 232.73 158.88 209.66 143.57 181.78
  C 122.23 142.92 124.46 91.32 149.74 54.80
  Q 167.67 28.91 194.48 14.21
  Q 215.89 2.47 241.76 0.65
  Q 245.68 0.37 249.57 0.00
  Z"
/>
<path fill="#000000" d="
  M 381.98 512.00
  L 128.92 512.00
  Q 116.48 511.53 105.40 508.84
  C 68.42 499.85 43.97 469.23 42.38 431.27
  Q 40.56 387.86 50.70 344.75
  Q 56.34 320.73 68.18 299.22
  Q 72.15 292.00 77.23 285.20
  Q 99.08 255.99 134.81 249.20
  Q 145.07 247.25 153.85 247.40
  Q 161.31 247.52 168.00 251.78
  Q 194.68 268.76 195.00 268.98
  Q 199.91 272.21 206.93 275.20
  C 213.87 278.15 221.67 281.09 229.00 283.00
  C 250.69 288.63 272.49 287.25 293.40 279.43
  C 301.09 276.56 308.39 273.82 315.31 269.43
  Q 326.05 262.62 336.77 255.63
  C 342.19 252.10 349.43 247.51 356.04 247.43
  C 380.68 247.14 405.24 255.64 422.74 272.55
  Q 434.18 283.60 442.54 298.46
  Q 454.32 319.43 460.05 343.33
  Q 470.82 388.27 468.75 432.58
  Q 468.33 441.63 465.57 451.59
  Q 458.43 477.33 437.91 493.34
  C 421.68 506.00 402.47 511.29 381.98 512.00
  Z"
/>
</svg>
