<svg xmlns="http://www.w3.org/2000/svg" id="Capa_2" data-name="Capa 2" viewBox="0 0 446.09 60.25">
  <defs>
    <style>
      .cls-1 {
        fill: #f1cb14;
      }

      .cls-2 {
        fill: #009bd9;
      }

      .cls-3 {
        fill: #c20e21;
      }

      .cls-4 {
        fill: #1f1e21;
      }

      .cls-5 {
        fill: #201e22;
      }
    </style>
  </defs>
  <g id="Capa_1-2" data-name="Capa 1">
    <g>
      <g>
        <g>
          <path class="cls-2" d="M66.92,.6c-.25,4.45-3.91,7.44-5.83,11.2-.82,2.24-2.78,3.57-4.17,5.58-1.26,1.29-2.49,2.71-3.53,4.16,.18,1.04,1.29,1.33,1.92,2.09,1.42,.85,1.58,2.46,2.81,3.44,.73,0,.73,1.07,1.52,.95,1.67,1.8,3.03,3.66,4.42,5.62,.22,.69,.56,1.38,1.16,1.89,1.11,1.6,2.02,3.31,3.15,4.95,.16,1.83,1.71,3.06,2.18,4.76,.69,.92,.98,1.99,1.61,2.9,.98,2.15,1.64,4.39,2.8,6.43,.22,.48-.06,.95-.31,1.3-.44,.35-.79-.28-1.3-.19-2.58-.95-5.05-2.31-7.44-3.75-2.46-1.99-5.18-3.41-7.61-5.49-.95-.25-1.32-1.36-2.21-1.8-2.33-1.45-4.19-3.54-6.56-4.89-1.08-.82-2.15-1.61-3.22-2.46-.82-.09-1.1-1.04-1.89-1.32-1.77-1.07-3.37-2.55-5.17-3.57-.16,.26,0,.63-.16,.89-1.2,1.16-.88,2.97-1.74,4.26-.03,1.86-1.33,3.22-1.86,4.86-1.48,2.65-2.78,5.37-4.32,7.98-2.05,2.72-3.15,5.99-6.06,8.17-.63,.79-1.35,1.2-2.14,1.7-.35-.09-.85-.02-.95-.47-.34-.66,.1-1.67-.38-2.27,.41-.91,.16-1.95,.35-2.96l-.16-.44c.03-1.39,.72-2.56,.44-3.97,.38-.88,.54-1.87,.63-2.84,.44-1.2,.82-2.49,.95-3.78,.41-.76,.57-1.74,.48-2.62,.32-.82,.38-1.8,1.23-2.4,.12-.54,0-1.07,.09-1.64,.85-2.59,1.9-5.07,2.56-7.73,0-.19-.19-.25-.32-.28-1.86-.09-3.59,.28-5.33-.18-2.84-.04-5.71-.42-8.42-.98-1.1-.23-2.43-.1-3.44-.73-.66,.03-1.42,.15-2.05-.19-1.29-.63-2.87-.54-4.16-1.23-.98,.13-1.67-.5-2.55-.6-.85,.06-1.32-.67-1.93-1.14v-.28c1.58-2.14,4.1-2.75,6.37-3.57,2.24-.69,4.73-.76,7.07-1.23,1.48-.26,3.09,.16,4.58-.09,2.68,.06,5.27,.5,7.92,.56,.88,.13,1.7,.54,2.58,.5l-.03-.37-2.5-3.41c-.95-2.21-2.68-4.07-3.28-6.4-.56-.69-.03-1.74-.47-2.49-.03-.34,.25-.6,.41-.88,.54-.22,1.14,.16,1.68-.19,1.61,.38,3.09,.95,4.7,1.26,1.67,.66,3.37,1.33,4.86,2.44,1.86,1.32,4.1,2.17,5.55,4.23,.38,.34,.98,.41,1.49,.29,.44-.07,.53-.6,.95-.76,1.95-1.23,4.16-1.92,6.09-3.28,.79-.79,2.05-.88,2.52-1.96,.6-.29,1.14-.66,1.77-.82,1.1-.79,2.21-1.64,3.41-2.28,.63-.06,1.13-.41,1.64-.76,1.96-1.07,4.01-1.95,5.86-3.19,.42-1.1,1.64-.85,2.53-1.1,.44,.1,1.04,.03,1.23,.6Z"/>
          <path class="cls-1" d="M20.13,31.11c.63,.44,.6,1.32,1.16,1.76l.28,1.96-1.42,2.09c-1.8,.94-4.48,1.36-6.15-.16-.94-.85-1.2-2.08-.94-3.31l.66-1.8c.38-.25,.88-.31,1.13-.75,.88-.57,2.02-.44,3.03-.66,.76,.25,1.9-.16,2.25,.88Z"/>
          <path class="cls-3" d="M15.46,42.63c.57,0,.98,.41,1.51,.31,.76,.28,.66,1.2,1.45,1.42,.6,1.2,.98,2.49,1.29,3.79-.22,.75,.42,1.2,.19,1.9l.23,.12c.03,.72-.07,1.55-.35,2.24,.12,1.32-.54,2.43-1.1,3.57-.41,.25-.6,.98-1.16,.85-1.01,.31-1.11,1.83-2.34,1.64-.78,.6-1.86,.25-2.8,.28-.54-.28-1.29-.22-1.67-.69-.95-.38-1.8-1.07-2.62-1.76-.32-.7-1.05-1.01-1.13-1.8,.28-.94-.32-1.8-.07-2.75l-.19-1.58,.6-2.71c1.01-.54,.73-1.77,1.74-2.15,.63-1.45,2.15-1.77,3.31-2.49,.44-.1,.98,.16,1.33-.26,.63-.09,1.23,.56,1.8,.07Z"/>
        </g>
        <g>
          <rect class="cls-5" x="92.53" y="49.02" width="352.08" height=".64"/>
          <rect class="cls-5" x="92.53" y="49.67" width="352.08" height=".63"/>
        </g>
      </g>
      <g>
        <g>
          <path class="cls-5" d="M91.5,9.69h17.33c.96,0,1.83-.26,2.96-.7-.04,1.26-.09,2.22-.09,3.18,0,.87,.05,1.74,.09,2.61h-1.66c-.65-2.04-2.13-3-4.48-3h-6.18c-.05,3.57-.09,7.44-.14,11.58h6.1c1.66,0,3.22-.48,3.49-2.35h1.39c-.05,1.26-.09,2.48-.09,3.74,0,1.09,.04,2.22,.09,3.31h-1.39c-.48-2.05-1.79-2.61-3.49-2.61h-6.1c0,3.48-.04,7.27-.04,11.01,0,1.48,1.05,2.48,2.7,2.48v.96c-1.66,0-3.27-.17-4.92-.17s-3.22,.17-4.87,.17v-.96c1.74-.3,2.44-1,2.44-2.82v-8.75c0-5.22-.61-11.67-.61-14.32,0-1.48-1.04-2.05-2.52-2.4v-.96Z"/>
          <path class="cls-5" d="M115.76,21.92c1.27,.14,2.48,.14,3.74,.14s2.4,0,3.62-.14v.88c-1.39,.3-1.83,.82-1.83,2.04,0,1.04,.13,2.87,.13,4.61v3.44c0,3.31,1.7,4.83,4.62,4.83,1.09,0,2.35-.3,3.26-.96v-11.92c0-1.05-.26-1.66-1.52-2.04v-.88c1.31,.18,2.57,.14,3.88,.14,1.05,0,2.13,0,3.17-.14v.88c-.87,.3-1.3,.78-1.3,2.04v10.84c0,1.74,.43,2.31,1.3,2.31,.44,0,.7-.13,1.09-.31l.35,.83c-.43,.26-3.74,1.83-4.09,1.83-.39,0-2.48-1.66-2.83-2.26-1.22,1.04-4,2.26-5.66,2.26-4.35,0-6.48-3.05-6.48-7.01v-4.05c0-1.74-.14-3.4-.14-4.44,0-1.44-.26-2.01-1.31-2.04v-.88Z"/>
          <path class="cls-5" d="M138.62,23.53c2.57-.48,4.14-1.13,5.79-2.17h.87c-.04,.74-.04,1.44-.09,2.17,1.53-1.01,3.48-2.09,5.32-2.09,4.31,0,6,2.57,6,6.27v9.23c0,1.39,.35,1.69,1.57,2.04v.87c-1.09-.04-2.13-.13-3.22-.13-1.4,0-2.74,.13-4.14,.13v-.87c1.22-.26,1.57-.56,1.57-2.04v-7.54c0-2.35-.48-5.57-3.57-5.57-.87,0-3.66,.44-3.66,2.05s-.09,4.09-.09,7.48v3.58c0,1.57,.43,1.91,1.61,2.04v.87c-1.27-.04-2.48-.13-3.74-.13s-2.48,.13-3.7,.13v-.87c1.09-.39,1.61-.56,1.61-2.04v-4.27c0-2.53-.22-4.88-.22-6.27,0-1.26-.6-2-1.91-2v-.87Z"/>
          <path class="cls-5" d="M179.9,8.99c0,3.4-.18,8.27-.18,14.54v10.84c0,1.56,.35,2.43,1.35,2.43,.61,0,.92-.17,1.22-.34l.65,.65c-1.52,1.01-3.14,2.18-3.96,3.23-1.39-.48-2.61-1.56-3.31-2.87l-2.52,2.22c-.74,.44-1.57,.65-3.05,.65-5.31,0-8.79-4.09-8.79-9.36,0-6.05,4.09-9.53,9.66-9.53,1.48,0,2.96,.39,4.44,1.08v-6.44c0-2.44-1.09-3.04-2.22-3.22v-.87c2.13-.56,4.75-1.78,5.83-3h.88Zm-4.4,20.07c0-4.13-1.22-5.88-4.65-5.88s-4.83,3.7-4.83,6.67c0,3.61,2.18,7.88,5.96,7.88,1.26,0,2.39-.43,3.52-1.53v-7.13Z"/>
          <path class="cls-5" d="M186.18,26.36v-4.14c1.83-.52,3.57-.78,5.62-.78,3.87,0,7.18,1.04,7.18,5.4,0,1.57-.13,3.83-.18,6.31v1.53c0,2,.35,2.57,1.3,2.57,.22,0,.61-.09,.92-.18l.65,.65-3.27,2.61c-1.65-.22-2.96-1.05-3.48-2.13-1.48,1.09-2.87,2.13-4.79,2.13-2.96,0-5.88-1.83-5.88-5.05,0-4.62,4.4-6.4,8.36-6.4,.69,0,1.44,.13,2.04,.13,0-2.35-.17-4.97-3.13-4.97-2.13,0-3.22,.7-4.31,2.31h-1.05Zm8.49,4.22c-.47-.08-1.3-.21-2.08-.21-2.01,0-4.09,1.05-4.09,3.83,0,2,1.57,3.52,3.39,3.52,1.35,0,2.22-.3,2.92-.74l-.14-6.41Z"/>
          <path class="cls-5" d="M220.32,26.93h-1.18c-.88-2.23-2.61-3.75-4.88-3.75-4,0-5.66,3.66-5.66,7.23s2.61,7.75,7.05,7.75c1.96,0,3.52-.79,4.75-2.14l.82,.22-1.31,3.22c-1.74,.52-3.57,.87-6.01,.87-7.05,0-10.01-5.36-10.01-9.45s2.96-9.45,10.01-9.45c2.13,0,4.18,.44,6.13,1.08l.27,4.41Z"/>
          <path class="cls-5" d="M229.65,21.44c0,1.83,.17,5.66,.17,9.23v6.36c0,1.48,.7,1.7,1.7,1.96v.87c-1.31,0-2.61-.13-3.92-.13-1.17,0-2.35,.09-3.53,.13v-.87c1.05-.26,1.53-.48,1.53-1.96v-5.4c0-3.14-.26-4.88-.61-5.79-.35-.87-.78-1.17-1.83-1.35v-.87c2-.48,4.31-1.3,5.62-2.18h.87Zm-2.13-7.36c1.26,0,2.39,.92,2.39,2.22s-1.13,2.22-2.39,2.22-2.4-.91-2.4-2.22,1.13-2.22,2.4-2.22Z"/>
          <path class="cls-5" d="M244.1,21.44c7.05,0,10.01,5.36,10.01,9.45s-2.96,9.45-10.01,9.45-10.01-5.36-10.01-9.45,2.96-9.45,10.01-9.45Zm0,17.15c3.96,0,5.31-3.7,5.31-7.71s-1.35-7.71-5.31-7.71-5.31,3.7-5.31,7.71,1.35,7.71,5.31,7.71Zm-2.75-19.68l6.05-6.79c.44-.52,1-.7,1.7-.7,.87,0,1.52,.52,1.52,1.66,0,.78-.78,1.35-1.4,1.78l-5.74,4.05h-2.13Z"/>
          <path class="cls-5" d="M256.91,23.53c2.57-.48,4.13-1.13,5.79-2.17h.87c-.04,.74-.04,1.44-.09,2.17,1.52-1.01,3.48-2.09,5.31-2.09,4.31,0,6.01,2.57,6.01,6.27v9.23c0,1.39,.35,1.69,1.57,2.04v.87c-1.09-.04-2.13-.13-3.22-.13-1.39,0-2.74,.13-4.13,.13v-.87c1.22-.26,1.57-.56,1.57-2.04v-7.54c0-2.35-.48-5.57-3.57-5.57-.87,0-3.66,.44-3.66,2.05s-.09,4.09-.09,7.48v3.58c0,1.57,.44,1.91,1.61,2.04v.87c-1.26-.04-2.48-.13-3.74-.13s-2.49,.13-3.7,.13v-.87c1.09-.39,1.61-.56,1.61-2.04v-4.27c0-2.53-.22-4.88-.22-6.27,0-1.26-.61-2-1.91-2v-.87Z"/>
        </g>
        <g>
          <path class="cls-5" d="M299.34,11.66c1.52-.22,4.96-1.44,6.1-2.65h.87c-.04,2.35-.18,6.61-.18,10.62v16.88c0,1.48,.35,2.27,1.7,2.48v.88c-1.31,0-2.61-.13-3.92-.13s-2.47,.13-3.74,.13v-.88c1.39-.21,1.74-1,1.74-1.95v-14.1c0-2.53-.22-5.79-.35-7.44-.09-1.78-.83-2.83-2.22-2.83v-1Z"/>
          <path class="cls-5" d="M312.36,26.37v-4.13c1.83-.52,3.57-.78,5.61-.78,3.87,0,7.18,1.04,7.18,5.39,0,1.57-.13,3.83-.18,6.32v1.52c0,2.01,.35,2.57,1.3,2.57,.22,0,.61-.09,.91-.18l.66,.65-3.27,2.61c-1.65-.22-2.96-1.05-3.48-2.14-1.48,1.09-2.87,2.14-4.79,2.14-2.96,0-5.87-1.83-5.87-5.05,0-4.62,4.4-6.4,8.35-6.4,.7,0,1.44,.13,2.04,.13,0-2.35-.18-4.96-3.13-4.96-2.14,0-3.22,.7-4.31,2.31h-1.04Zm8.49,4.22c-.48-.09-1.3-.21-2.09-.21-2,0-4.09,1.04-4.09,3.83,0,2,1.57,3.52,3.39,3.52,1.35,0,2.22-.31,2.92-.74l-.13-6.4Z"/>
          <path class="cls-5" d="M364.93,16.54h-1.83c-1.35-4.1-5.61-5.7-9.36-5.7-7.57,0-10.7,6.09-10.7,13.4,0,12.27,8.88,14.36,12.49,14.36s6.7-1.53,8.61-4.57l1.35,.56-1.35,4.83c-3.48,.65-5.66,1-8.48,1-12.97,0-18.67-8.01-18.67-15.84,0-8.97,6.92-15.58,16.67-15.58,5.66,0,7.83,.95,10.92,1.74l.35,5.79Z"/>
          <path class="cls-5" d="M369.52,26.37v-4.13c1.83-.52,3.57-.78,5.61-.78,3.87,0,7.18,1.04,7.18,5.39,0,1.57-.14,3.83-.18,6.32v1.52c0,2.01,.35,2.57,1.3,2.57,.21,0,.61-.09,.91-.18l.65,.65-3.26,2.61c-1.66-.22-2.96-1.05-3.49-2.14-1.48,1.09-2.87,2.14-4.79,2.14-2.96,0-5.88-1.83-5.88-5.05,0-4.62,4.4-6.4,8.35-6.4,.7,0,1.44,.13,2.05,.13,0-2.35-.18-4.96-3.14-4.96-2.13,0-3.22,.7-4.3,2.31h-1.05Zm8.49,4.22c-.48-.09-1.3-.21-2.09-.21-2.01,0-4.09,1.04-4.09,3.83,0,2,1.57,3.52,3.4,3.52,1.35,0,2.22-.31,2.91-.74l-.13-6.4Z"/>
          <path class="cls-5" d="M393.63,21.45c0,1.83,.18,5.65,.18,9.22v6.36c0,1.48,.7,1.7,1.7,1.95v.88c-1.3,0-2.61-.13-3.92-.13-1.17,0-2.35,.09-3.52,.13v-.88c1.05-.26,1.53-.47,1.53-1.95v-5.4c0-3.13-.26-4.87-.61-5.78-.35-.88-.78-1.18-1.83-1.35v-.86c2-.48,4.31-1.31,5.61-2.18h.87Zm-2.13-7.35c1.27,0,2.4,.92,2.4,2.22s-1.13,2.22-2.4,2.22-2.39-.91-2.39-2.22,1.13-2.22,2.39-2.22Z"/>
          <path class="cls-5" d="M397.69,38.98c1.39-.21,2.31-1.3,2.87-2.04l4.22-5.41-5.01-6.78c-.83-1.08-1.13-1.39-2.39-1.96v-.87c1.31,.04,2.65,.13,3.96,.13s2.61-.09,3.92-.13v.87c-.53,.26-.92,.35-.92,1,0,.31,.13,.87,.52,1.39l2.39,3.26,2.13-2.82c.44-.61,.66-1.13,.66-1.44,0-.83-.53-1.13-1.22-1.39v-.87c1.17,.04,2.31,.13,3.48,.13s2.31-.09,3.44-.13v.87c-1.7,.39-2.61,1.44-3.57,2.65l-3.7,4.7,4.7,6.53c.65,.87,1.65,1.95,2.74,2.3v.88c-1.3-.04-2.57-.13-3.87-.13s-2.57,.09-3.87,.13v-.88c.48-.04,.87-.52,.87-.95,0-.26-.35-.96-.7-1.48l-2.35-3.35-2.35,3.17c-.26,.39-.61,1.22-.61,1.61,0,.7,.35,.92,.91,1v.88c-1.13-.04-2.3-.13-3.44-.13-.96,0-1.87,.09-2.83,.13v-.88Z"/>
          <path class="cls-5" d="M419.45,26.37v-4.13c1.83-.52,3.57-.78,5.62-.78,3.87,0,7.18,1.04,7.18,5.39,0,1.57-.13,3.83-.17,6.32v1.52c0,2.01,.35,2.57,1.3,2.57,.22,0,.61-.09,.92-.18l.66,.65-3.27,2.61c-1.66-.22-2.96-1.05-3.48-2.14-1.48,1.09-2.87,2.14-4.79,2.14-2.96,0-5.87-1.83-5.87-5.05,0-4.62,4.39-6.4,8.35-6.4,.7,0,1.44,.13,2.04,.13,0-2.35-.18-4.96-3.14-4.96-2.13,0-3.22,.7-4.31,2.31h-1.05Zm8.49,4.22c-.48-.09-1.31-.21-2.09-.21-2.01,0-4.09,1.04-4.09,3.83,0,2,1.57,3.52,3.4,3.52,1.35,0,2.22-.31,2.91-.74l-.13-6.4Z"/>
        </g>
        <g>
          <path class="cls-4" d="M297.04,10.5c1.15,3.76-1.79,6.58-2.75,9.92-.26,.48-.96,.24-1.39,.18l-.14-.3c.38-2.59,2.43-4.99,1.21-7.76-.31-1.1-2.29-1.1-1.78-2.4,.32-.42,.32-1.17,1.02-1.1,1.46-.18,3.44-.24,3.82,1.47Z"/>
          <path class="cls-4" d="M290.79,10.5c1.15,3.76-1.78,6.58-2.74,9.92-.25,.48-.96,.24-1.4,.18l-.13-.3c.38-2.59,2.42-4.99,1.21-7.76-.32-1.1-2.29-1.1-1.78-2.4,.3-.42,.3-1.17,1.01-1.1,1.47-.18,3.44-.24,3.83,1.47Z"/>
          <path class="cls-4" d="M445.82,10.5c1.16,3.76-1.77,6.58-2.74,9.92-.25,.48-.96,.24-1.41,.18l-.12-.3c.39-2.59,2.42-4.99,1.2-7.76-.32-1.1-2.29-1.1-1.78-2.4,.32-.42,.32-1.17,1.03-1.1,1.46-.18,3.43-.24,3.81,1.47Z"/>
          <path class="cls-4" d="M439.57,10.5c1.15,3.76-1.8,6.58-2.75,9.92-.26,.48-.96,.24-1.4,.18l-.13-.3c.39-2.59,2.42-4.99,1.22-7.76-.33-1.1-2.3-1.1-1.79-2.4,.32-.42,.32-1.17,1.02-1.1,1.46-.18,3.45-.24,3.83,1.47Z"/>
        </g>
      </g>
    </g>
  </g>
</svg>