<?xml version="1.0" encoding="UTF-8"?>
<svg width="93px" height="46px" viewBox="0 0 93 46" version="1.1" xmlns="http://www.w3.org/2000/svg" xmlns:xlink="http://www.w3.org/1999/xlink">
    <title>FUND CX es</title>
    <defs>
        <polygon id="path-1" points="0 45.5718 92.622 45.5718 92.622 -0.0002 0 -0.0002"></polygon>
    </defs>
    <g id="FUND-CX-es" stroke="none" stroke-width="1" fill="none" fill-rule="evenodd">
        <g id="Group-30">
            <path d="M60.8068,0.3231 C60.6718,2.7341 58.6918,4.3551 57.6508,6.3851 C57.2048,7.5981 56.1488,8.3161 55.3968,9.4091 C54.7128,10.1081 54.0468,10.8791 53.4828,11.6621 C53.5858,12.2261 54.1838,12.3811 54.5238,12.7911 C55.2928,13.2511 55.3788,14.1201 56.0428,14.6521 C56.4378,14.6521 56.4378,15.2301 56.8658,15.1641 C57.7678,16.1361 58.5038,17.1391 59.2558,18.2021 C59.3728,18.5761 59.5608,18.9521 59.8868,19.2261 C60.4868,20.0941 60.9788,21.0191 61.5938,21.9061 C61.6798,22.8981 62.5158,23.5641 62.7718,24.4861 C63.1488,24.9801 63.3008,25.5611 63.6428,26.0551 C64.1738,27.2191 64.5318,28.4311 65.1618,29.5391 C65.2838,29.7961 65.1288,30.0511 64.9908,30.2401 C64.7518,30.4271 64.5668,30.0871 64.2928,30.1351 C62.8928,29.6251 61.5608,28.8891 60.2618,28.1071 C58.9318,27.0291 57.4608,26.2601 56.1488,25.1341 C55.6348,24.9971 55.4318,24.4001 54.9518,24.1611 C53.6878,23.3781 52.6798,22.2481 51.4008,21.5131 C50.8208,21.0711 50.2388,20.6431 49.6608,20.1831 C49.2148,20.1321 49.0608,19.6191 48.6328,19.4651 C47.6778,18.8851 46.8088,18.0831 45.8338,17.5371 C45.7478,17.6741 45.8338,17.8771 45.7478,18.0141 C45.0998,18.6461 45.2698,19.6191 44.8108,20.3201 C44.7908,21.3281 44.0918,22.0621 43.8028,22.9501 C42.9998,24.3831 42.3008,25.8511 41.4628,27.2691 C40.3538,28.7381 39.7558,30.5131 38.1838,31.6911 C37.8418,32.1191 37.4518,32.3401 37.0238,32.6111 C36.8358,32.5621 36.5628,32.5941 36.5118,32.3561 C36.3228,31.9991 36.5628,31.4511 36.3068,31.1291 C36.5278,30.6351 36.3908,30.0701 36.4948,29.5231 L36.4108,29.2851 C36.4258,28.5321 36.8008,27.9001 36.6488,27.1321 C36.8538,26.6541 36.9398,26.1271 36.9888,25.5941 C37.2268,24.9471 37.4338,24.2471 37.4998,23.5451 C37.7228,23.1351 37.8088,22.6091 37.7578,22.1291 C37.9278,21.6841 37.9608,21.1571 38.4218,20.8321 C38.4928,20.5431 38.4218,20.2511 38.4748,19.9451 C38.9358,18.5451 39.4978,17.1951 39.8578,15.7611 C39.8578,15.6581 39.7558,15.6251 39.6858,15.6071 C38.6778,15.5531 37.7408,15.7611 36.8008,15.5051 C35.2638,15.4881 33.7108,15.2831 32.2428,14.9731 C31.6468,14.8541 30.9278,14.9261 30.3808,14.5841 C30.0218,14.5981 29.6118,14.6661 29.2718,14.4801 C28.5728,14.1371 27.7168,14.1891 27.0178,13.8131 C26.4908,13.8831 26.1118,13.5421 25.6348,13.4901 C25.1738,13.5221 24.9158,13.1311 24.5938,12.8731 L24.5938,12.7201 C25.4478,11.5591 26.8128,11.2341 28.0408,10.7911 C29.2538,10.4151 30.6038,10.3821 31.8678,10.1251 C32.6678,9.9871 33.5388,10.2121 34.3438,10.0731 C35.7928,10.1081 37.1958,10.3461 38.6288,10.3821 C39.1058,10.4511 39.5508,10.6721 40.0278,10.6541 L40.0098,10.4511 L38.6618,8.6051 C38.1488,7.4101 37.2108,6.4021 36.8868,5.1371 C36.5778,4.7641 36.8698,4.2021 36.6308,3.7911 C36.6138,3.6031 36.7678,3.4661 36.8538,3.3141 C37.1428,3.1941 37.4668,3.3981 37.7578,3.2111 C38.6288,3.4171 39.4318,3.7201 40.3028,3.8941 C41.2048,4.2521 42.1288,4.6091 42.9318,5.2081 C43.9398,5.9261 45.1508,6.3851 45.9378,7.4961 C46.1408,7.6841 46.4648,7.7171 46.7388,7.6481 C46.9788,7.6151 47.0298,7.3261 47.2498,7.2401 C48.3108,6.5741 49.5038,6.1991 50.5468,5.4661 C50.9728,5.0371 51.6568,4.9881 51.9138,4.4041 C52.2368,4.2521 52.5278,4.0471 52.8698,3.9611 C53.4668,3.5351 54.0628,3.0741 54.7128,2.7341 C55.0548,2.6991 55.3268,2.5111 55.6018,2.3221 C56.6608,1.7421 57.7678,1.2621 58.7758,0.5981 C58.9998,0.0001 59.6638,0.1361 60.1428,0.0001 C60.3828,0.0521 60.7068,0.0171 60.8068,0.3231" id="Fill-1" fill="#00BCEE"></path>
            <path d="M35.4865,16.8358 C35.8285,17.0738 35.8105,17.5548 36.1195,17.7928 L36.2695,18.8528 L35.5025,19.9788 C34.5315,20.4898 33.0805,20.7108 32.1735,19.8928 C31.6625,19.4318 31.5235,18.7658 31.6625,18.0998 L32.0215,17.1268 C32.2265,16.9898 32.4985,16.9548 32.6345,16.7178 C33.1155,16.4078 33.7285,16.4778 34.2755,16.3568 C34.6835,16.4938 35.2995,16.2738 35.4865,16.8358" id="Fill-3" fill="#FFC400"></path>
            <path d="M32.9592,23.0702 C33.2662,23.0702 33.4882,23.2912 33.7792,23.2402 C34.1892,23.3922 34.1372,23.8852 34.5642,24.0072 C34.8892,24.6582 35.0922,25.3562 35.2642,26.0562 C35.1452,26.4662 35.4862,26.7072 35.3672,27.0802 L35.4862,27.1502 C35.5022,27.5432 35.4532,27.9862 35.2992,28.3632 C35.3672,29.0792 35.0082,29.6762 34.7012,30.2912 C34.4792,30.4262 34.3772,30.8202 34.0702,30.7542 C33.5212,30.9242 33.4732,31.7432 32.8072,31.6402 C32.3792,31.9652 31.7992,31.7782 31.2852,31.7942 C30.9962,31.6402 30.5862,31.6742 30.3812,31.4182 C29.8672,31.2132 29.4082,30.8382 28.9652,30.4612 C28.7932,30.0872 28.4002,29.9152 28.3482,29.4882 C28.5042,28.9762 28.1802,28.5152 28.3162,28.0052 L28.2132,27.1502 L28.5372,25.6832 C29.0822,25.3902 28.9302,24.7242 29.4752,24.5192 C29.8162,23.7342 30.6372,23.5642 31.2682,23.1712 C31.5082,23.1212 31.7992,23.2562 31.9862,23.0362 C32.3262,22.9822 32.6522,23.3412 32.9592,23.0702" id="Fill-5" fill="#E20011"></path>
            <mask id="mask-2" fill="white">
                <use xlink:href="#path-1"></use>
            </mask>
            <g id="Clip-8"></g>
            <polygon id="Fill-7" fill="#FEFEFE" mask="url(#mask-2)" points="0.276 35.2988 92.141 35.2988 92.141 35.1178 0.276 35.1178"></polygon>
            <polygon id="Fill-9" fill="#FEFEFE" mask="url(#mask-2)" points="0.276 35.4848 92.141 35.4848 92.141 35.2988 0.276 35.2988"></polygon>
            <path d="M0.0002,37.5429 L4.5252,37.5429 C4.7732,37.5429 5.0022,37.4749 5.2992,37.3589 C5.2872,37.6889 5.2732,37.9389 5.2732,38.1889 C5.2732,38.4169 5.2872,38.6449 5.2992,38.8729 L4.8652,38.8729 C4.6932,38.3389 4.3092,38.0859 3.6952,38.0859 L2.0802,38.0859 C2.0662,39.0199 2.0572,40.0309 2.0452,41.1109 L3.6372,41.1109 C4.0702,41.1109 4.4792,40.9849 4.5472,40.4959 L4.9122,40.4959 C4.9002,40.8259 4.8892,41.1459 4.8892,41.4749 C4.8892,41.7609 4.9002,42.0569 4.9122,42.3399 L4.5472,42.3399 C4.4222,41.8049 4.0822,41.6579 3.6372,41.6579 L2.0452,41.6579 C2.0452,42.5669 2.0352,43.5569 2.0352,44.5339 C2.0352,44.9219 2.3092,45.1839 2.7402,45.1839 L2.7402,45.4339 C2.3092,45.4339 1.8872,45.3869 1.4552,45.3869 C1.0232,45.3869 0.6132,45.4339 0.1802,45.4339 L0.1802,45.1839 C0.6352,45.1039 0.8182,44.9219 0.8182,44.4429 L0.8182,42.1579 C0.8182,40.7939 0.6562,39.1099 0.6562,38.4169 C0.6562,38.0309 0.3872,37.8839 0.0002,37.7909 L0.0002,37.5429 Z" id="Fill-10" fill="#FEFEFE" mask="url(#mask-2)"></path>
            <path d="M6.3361,40.7362 C6.6641,40.7732 6.9821,40.7732 7.3151,40.7732 C7.6331,40.7732 7.9381,40.7732 8.2561,40.7362 L8.2561,40.9642 C7.8931,41.0432 7.7791,41.1812 7.7791,41.5002 C7.7791,41.7722 7.8151,42.2492 7.8151,42.7042 L7.8151,43.6012 C7.8151,44.4652 8.2561,44.8652 9.0201,44.8652 C9.3031,44.8652 9.6331,44.7832 9.8731,44.6132 L9.8731,41.5002 C9.8731,41.2242 9.8051,41.0662 9.4751,40.9642 L9.4751,40.7362 C9.8151,40.7832 10.1451,40.7732 10.4861,40.7732 C10.7601,40.7732 11.0431,40.7732 11.3161,40.7362 L11.3161,40.9642 C11.0881,41.0432 10.9751,41.1682 10.9751,41.5002 L10.9751,44.3302 C10.9751,44.7832 11.0881,44.9332 11.3161,44.9332 C11.4301,44.9332 11.4981,44.8992 11.6001,44.8522 L11.6911,45.0702 C11.5781,45.1382 10.7131,45.5472 10.6231,45.5472 C10.5201,45.5472 9.9751,45.1132 9.8831,44.9552 C9.5651,45.2302 8.8381,45.5472 8.4061,45.5472 C7.2701,45.5472 6.7131,44.7502 6.7131,43.7152 L6.7131,42.6582 C6.7131,42.2042 6.6781,41.7722 6.6781,41.5002 C6.6781,41.1242 6.6091,40.9732 6.3361,40.9642 L6.3361,40.7362 Z" id="Fill-11" fill="#FEFEFE" mask="url(#mask-2)"></path>
            <path d="M12.3088,41.1581 C12.9788,41.0331 13.3888,40.8631 13.8208,40.5881 L14.0488,40.5881 C14.0378,40.7831 14.0378,40.9641 14.0258,41.1581 C14.4238,40.8941 14.9358,40.6131 15.4128,40.6131 C16.5388,40.6131 16.9828,41.2851 16.9828,42.2491 L16.9828,44.6601 C16.9828,45.0241 17.0728,45.1031 17.3908,45.1931 L17.3908,45.4221 C17.1098,45.4101 16.8338,45.3871 16.5508,45.3871 C16.1878,45.3871 15.8338,45.4221 15.4708,45.4221 L15.4708,45.1931 C15.7888,45.1251 15.8788,45.0461 15.8788,44.6601 L15.8788,42.6931 C15.8788,42.0791 15.7538,41.2381 14.9458,41.2381 C14.7188,41.2381 13.9908,41.3531 13.9908,41.7721 C13.9908,42.2041 13.9688,42.8401 13.9688,43.7261 L13.9688,44.6601 C13.9688,45.0701 14.0818,45.1611 14.3888,45.1931 L14.3888,45.4221 C14.0608,45.4101 13.7428,45.3871 13.4108,45.3871 C13.0938,45.3871 12.7638,45.4221 12.4458,45.4221 L12.4458,45.1931 C12.7288,45.0921 12.8658,45.0461 12.8658,44.6601 L12.8658,43.5471 C12.8658,42.8871 12.8088,42.2731 12.8088,41.9081 C12.8088,41.5791 12.6508,41.3851 12.3088,41.3851 L12.3088,41.1581 Z" id="Fill-12" fill="#FEFEFE" mask="url(#mask-2)"></path>
            <path d="M21.9436,42.6014 C21.9436,41.5214 21.6256,41.0664 20.7266,41.0664 C19.8286,41.0664 19.4646,42.0344 19.4646,42.8064 C19.4646,43.7494 20.0336,44.8654 21.0236,44.8654 C21.3516,44.8654 21.6466,44.7484 21.9436,44.4664 L21.9436,42.6014 Z M23.0916,37.3604 C23.0916,38.2464 23.0476,39.5194 23.0476,41.1584 L23.0476,43.9904 C23.0476,44.3974 23.1366,44.6254 23.3986,44.6254 C23.5566,44.6254 23.6366,44.5804 23.7166,44.5344 L23.8886,44.7034 C23.4906,44.9644 23.0686,45.2734 22.8536,45.5464 C22.4866,45.4214 22.1686,45.1384 21.9886,44.7964 L21.3286,45.3754 C21.1366,45.4904 20.9206,45.5464 20.5336,45.5464 C19.1466,45.5464 18.2366,44.4764 18.2366,43.1014 C18.2366,41.5214 19.3066,40.6134 20.7596,40.6134 C21.1466,40.6134 21.5336,40.7144 21.9206,40.8944 L21.9206,39.2124 C21.9206,38.5764 21.6366,38.4154 21.3416,38.3724 L21.3416,38.1444 C21.8986,37.9954 22.5806,37.6784 22.8636,37.3604 L23.0916,37.3604 Z" id="Fill-13" fill="#FEFEFE" mask="url(#mask-2)"></path>
            <path d="M26.9494,42.9989 C26.8244,42.9779 26.6074,42.9429 26.4024,42.9429 C25.8814,42.9429 25.3364,43.2149 25.3364,43.9439 C25.3364,44.4669 25.7464,44.8649 26.2204,44.8649 C26.5724,44.8649 26.8034,44.7829 26.9844,44.6709 L26.9494,42.9989 Z M24.7304,41.8959 L24.7304,40.8169 C25.2094,40.6809 25.6644,40.6129 26.1994,40.6129 C27.2114,40.6129 28.0744,40.8849 28.0744,42.0199 C28.0744,42.4319 28.0414,43.0209 28.0294,43.6719 L28.0294,44.0689 C28.0294,44.5919 28.1194,44.7389 28.3714,44.7389 C28.4284,44.7389 28.5294,44.7159 28.6094,44.6929 L28.7814,44.8649 L27.9264,45.5469 C27.4944,45.4899 27.1544,45.2719 27.0174,44.9889 C26.6314,45.2719 26.2654,45.5469 25.7654,45.5469 C24.9924,45.5469 24.2304,45.0699 24.2304,44.2279 C24.2304,43.0209 25.3814,42.5579 26.4164,42.5579 C26.5974,42.5579 26.7914,42.5899 26.9494,42.5899 C26.9494,41.9769 26.9024,41.2929 26.1314,41.2929 C25.5744,41.2929 25.2894,41.4749 25.0064,41.8959 L24.7304,41.8959 Z" id="Fill-14" fill="#FEFEFE" mask="url(#mask-2)"></path>
            <path d="M33.6486,42.0468 L33.3436,42.0468 C33.1156,41.4648 32.6626,41.0668 32.0686,41.0668 C31.0216,41.0668 30.5896,42.0218 30.5896,42.9548 C30.5896,43.9098 31.2716,44.9788 32.4316,44.9788 C32.9456,44.9788 33.3536,44.7738 33.6736,44.4218 L33.8886,44.4768 L33.5466,45.3188 C33.0916,45.4568 32.6156,45.5468 31.9766,45.5468 C30.1346,45.5468 29.3616,44.1488 29.3616,43.0778 C29.3616,42.0118 30.1346,40.6118 31.9766,40.6118 C32.5356,40.6118 33.0686,40.7248 33.5826,40.8948 L33.6486,42.0468 Z" id="Fill-15" fill="#FEFEFE" mask="url(#mask-2)"></path>
            <path d="M35.5295,38.6893 C35.8575,38.6893 36.1545,38.9293 36.1545,39.2703 C36.1545,39.6113 35.8575,39.8493 35.5295,39.8493 C35.1995,39.8493 34.9025,39.6113 34.9025,39.2703 C34.9025,38.9293 35.1995,38.6893 35.5295,38.6893 L35.5295,38.6893 Z M36.0865,40.6133 C36.0865,41.0913 36.1315,42.0883 36.1315,43.0223 L36.1315,44.6833 C36.1315,45.0703 36.3125,45.1253 36.5745,45.1933 L36.5745,45.4203 C36.2325,45.4203 35.8925,45.3863 35.5495,45.3863 C35.2445,45.3863 34.9375,45.4103 34.6295,45.4203 L34.6295,45.1933 C34.9025,45.1253 35.0275,45.0703 35.0275,44.6833 L35.0275,43.2713 C35.0275,42.4553 34.9595,42.0003 34.8695,41.7603 C34.7775,41.5333 34.6645,41.4533 34.3905,41.4073 L34.3905,41.1813 C34.9145,41.0543 35.5175,40.8383 35.8575,40.6133 L36.0865,40.6133 Z" id="Fill-16" fill="#FEFEFE" mask="url(#mask-2)"></path>
            <path d="M39.1447,39.953 L40.7267,38.178 C40.8377,38.041 40.9847,37.995 41.1677,37.995 C41.3947,37.995 41.5667,38.133 41.5667,38.43 C41.5667,38.632 41.3597,38.78 41.2017,38.893 L39.7017,39.953 L39.1447,39.953 Z M39.8617,45.092 C40.8947,45.092 41.2487,44.126 41.2487,43.078 C41.2487,42.034 40.8947,41.066 39.8617,41.066 C38.8267,41.066 38.4747,42.034 38.4747,43.078 C38.4747,44.126 38.8267,45.092 39.8617,45.092 L39.8617,45.092 Z M39.8617,40.613 C41.7017,40.613 42.4747,42.012 42.4747,43.078 C42.4747,44.148 41.7017,45.547 39.8617,45.547 C38.0177,45.547 37.2467,44.148 37.2467,43.078 C37.2467,42.012 38.0177,40.613 39.8617,40.613 L39.8617,40.613 Z" id="Fill-17" fill="#FEFEFE" mask="url(#mask-2)"></path>
            <path d="M43.2072,41.1581 C43.8772,41.0331 44.2852,40.8631 44.7192,40.5881 L44.9452,40.5881 C44.9342,40.7831 44.9342,40.9641 44.9222,41.1581 C45.3202,40.8941 45.8342,40.6131 46.3112,40.6131 C47.4362,40.6131 47.8812,41.2851 47.8812,42.2491 L47.8812,44.6601 C47.8812,45.0241 47.9712,45.1031 48.2872,45.1931 L48.2872,45.4221 C48.0042,45.4101 47.7322,45.3871 47.4472,45.3871 C47.0822,45.3871 46.7302,45.4221 46.3672,45.4221 L46.3672,45.1931 C46.6842,45.1251 46.7752,45.0461 46.7752,44.6601 L46.7752,42.6931 C46.7752,42.0791 46.6502,41.2381 45.8442,41.2381 C45.6172,41.2381 44.8912,41.3531 44.8912,41.7721 C44.8912,42.2041 44.8652,42.8401 44.8652,43.7261 L44.8652,44.6601 C44.8652,45.0701 44.9782,45.1611 45.2872,45.1931 L45.2872,45.4221 C44.9572,45.4101 44.6392,45.3871 44.3112,45.3871 C43.9902,45.3871 43.6622,45.4221 43.3442,45.4221 L43.3442,45.1931 C43.6272,45.0921 43.7642,45.0461 43.7642,44.6601 L43.7642,43.5471 C43.7642,42.8871 43.7052,42.2731 43.7052,41.9081 C43.7052,41.5791 43.5472,41.3851 43.2072,41.3851 L43.2072,41.1581 Z" id="Fill-18" fill="#FEFEFE" mask="url(#mask-2)"></path>
            <path d="M54.2912,38.0565 C54.6872,37.9975 55.5862,37.6835 55.8832,37.3655 L56.1092,37.3655 C56.0982,37.9785 56.0622,39.0915 56.0622,40.1365 L56.0622,44.5465 C56.0622,44.9355 56.1562,45.1385 56.5062,45.1955 L56.5062,45.4235 C56.1662,45.4235 55.8242,45.3895 55.4842,45.3895 C55.1542,45.3895 54.8362,45.4235 54.5062,45.4235 L54.5062,45.1955 C54.8692,45.1385 54.9612,44.9355 54.9612,44.6835 L54.9612,40.9985 C54.9612,40.3415 54.9042,39.4905 54.8692,39.0585 C54.8482,38.5915 54.6522,38.3185 54.2912,38.3185 L54.2912,38.0565 Z" id="Fill-19" fill="#FEFEFE" mask="url(#mask-2)"></path>
            <path d="M59.9064,43.0018 C59.7834,42.9788 59.5664,42.9438 59.3594,42.9438 C58.8404,42.9438 58.2934,43.2178 58.2934,43.9438 C58.2934,44.4668 58.7034,44.8648 59.1794,44.8648 C59.5314,44.8648 59.7604,44.7868 59.9394,44.6738 L59.9064,43.0018 Z M57.6914,41.8988 L57.6914,40.8178 C58.1684,40.6818 58.6234,40.6148 59.1564,40.6148 C60.1684,40.6148 61.0334,40.8868 61.0334,42.0228 C61.0334,42.4318 61.0004,43.0228 60.9864,43.6718 L60.9864,44.0678 C60.9864,44.5938 61.0784,44.7398 61.3284,44.7398 C61.3854,44.7398 61.4884,44.7198 61.5664,44.6938 L61.7384,44.8648 L60.8854,45.5488 C60.4514,45.4918 60.1114,45.2738 59.9764,44.9918 C59.5884,45.2738 59.2244,45.5488 58.7244,45.5488 C57.9514,45.5488 57.1894,45.0708 57.1894,44.2308 C57.1894,43.0228 58.3384,42.5588 59.3734,42.5588 C59.5544,42.5588 59.7484,42.5918 59.9064,42.5918 C59.9064,41.9788 59.8614,41.2968 59.0904,41.2968 C58.5314,41.2968 58.2484,41.4798 57.9634,41.8988 L57.6914,41.8988 Z" id="Fill-20" fill="#FEFEFE" mask="url(#mask-2)"></path>
            <path d="M71.424,39.3309 L70.945,39.3309 C70.594,38.2619 69.479,37.8419 68.502,37.8419 C66.524,37.8419 65.705,39.4319 65.705,41.3429 C65.705,44.5469 68.024,45.0919 68.967,45.0919 C69.889,45.0919 70.719,44.6949 71.219,43.8969 L71.57,44.0469 L71.219,45.3099 C70.311,45.4779 69.74,45.5719 69.002,45.5719 C65.615,45.5719 64.125,43.4779 64.125,41.4329 C64.125,39.0919 65.934,37.3649 68.479,37.3649 C69.955,37.3649 70.526,37.6149 71.332,37.8179 L71.424,39.3309 Z" id="Fill-21" fill="#FEFEFE" mask="url(#mask-2)"></path>
            <path d="M74.8361,43.0018 C74.7131,42.9788 74.4961,42.9438 74.2931,42.9438 C73.7681,42.9438 73.2251,43.2178 73.2251,43.9438 C73.2251,44.4668 73.6331,44.8648 74.1091,44.8648 C74.4651,44.8648 74.6901,44.7868 74.8731,44.6738 L74.8361,43.0018 Z M72.6211,41.8988 L72.6211,40.8178 C73.0981,40.6818 73.5531,40.6148 74.0861,40.6148 C75.1001,40.6148 75.9631,40.8868 75.9631,42.0228 C75.9631,42.4318 75.9281,43.0228 75.9161,43.6718 L75.9161,44.0678 C75.9161,44.5938 76.0081,44.7398 76.2581,44.7398 C76.3151,44.7398 76.4161,44.7198 76.4961,44.6938 L76.6681,44.8648 L75.8151,45.5488 C75.3831,45.4918 75.0411,45.2738 74.9061,44.9918 C74.5181,45.2738 74.1561,45.5488 73.6561,45.5488 C72.8831,45.5488 72.1211,45.0708 72.1211,44.2308 C72.1211,43.0228 73.2701,42.5588 74.3031,42.5588 C74.4841,42.5588 74.6781,42.5918 74.8361,42.5918 C74.8361,41.9788 74.7911,41.2968 74.0181,41.2968 C73.4611,41.2968 73.1781,41.4798 72.8911,41.8988 L72.6211,41.8988 Z" id="Fill-22" fill="#FEFEFE" mask="url(#mask-2)"></path>
            <path d="M78.3654,38.6942 C78.6934,38.6942 78.9884,38.9312 78.9884,39.2722 C78.9884,39.6132 78.6934,39.8512 78.3654,39.8512 C78.0334,39.8512 77.7384,39.6132 77.7384,39.2722 C77.7384,38.9312 78.0334,38.6942 78.3654,38.6942 L78.3654,38.6942 Z M78.9224,40.6152 C78.9224,41.0902 78.9674,42.0902 78.9674,43.0242 L78.9674,44.6832 C78.9674,45.0712 79.1484,45.1292 79.4104,45.1952 L79.4104,45.4232 C79.0684,45.4232 78.7264,45.3892 78.3864,45.3892 C78.0784,45.3892 77.7714,45.4122 77.4654,45.4232 L77.4654,45.1952 C77.7384,45.1292 77.8654,45.0712 77.8654,44.6832 L77.8654,43.2752 C77.8654,42.4572 77.7954,42.0022 77.7054,41.7612 C77.6134,41.5352 77.4984,41.4562 77.2284,41.4122 L77.2284,41.1832 C77.7504,41.0582 78.3514,40.8412 78.6934,40.6152 L78.9224,40.6152 Z" id="Fill-23" fill="#FEFEFE" mask="url(#mask-2)"></path>
            <path d="M79.9787,45.1952 C80.3437,45.1382 80.5827,44.8552 80.7307,44.6642 L81.8327,43.2502 L80.5257,41.4792 C80.3087,41.1952 80.2307,41.1152 79.9007,40.9662 L79.9007,40.7402 C80.2407,40.7502 80.5917,40.7732 80.9337,40.7732 C81.2757,40.7732 81.6177,40.7502 81.9577,40.7402 L81.9577,40.9662 C81.8207,41.0352 81.7167,41.0582 81.7167,41.2262 C81.7167,41.3072 81.7517,41.4562 81.8557,41.5922 L82.4787,42.4452 L83.0357,41.7052 C83.1507,41.5472 83.2077,41.4122 83.2077,41.3302 C83.2077,41.1152 83.0707,41.0352 82.8887,40.9662 L82.8887,40.7402 C83.1957,40.7502 83.4907,40.7732 83.7967,40.7732 C84.0957,40.7732 84.4027,40.7502 84.6977,40.7402 L84.6977,40.9662 C84.2537,41.0702 84.0137,41.3412 83.7637,41.6612 L82.7987,42.8882 L84.0257,44.5922 C84.1977,44.8202 84.4577,45.1032 84.7427,45.1952 L84.7427,45.4242 C84.4027,45.4122 84.0707,45.3892 83.7287,45.3892 C83.3887,45.3892 83.0587,45.4122 82.7207,45.4242 L82.7207,45.1952 C82.8437,45.1832 82.9457,45.0582 82.9457,44.9452 C82.9457,44.8772 82.8537,44.6952 82.7637,44.5582 L82.1507,43.6852 L81.5357,44.5132 C81.4667,44.6162 81.3767,44.8322 81.3767,44.9352 C81.3767,45.1152 81.4667,45.1742 81.6177,45.1952 L81.6177,45.4242 C81.3207,45.4122 81.0157,45.3892 80.7187,45.3892 C80.4687,45.3892 80.2307,45.4122 79.9787,45.4242 L79.9787,45.1952 Z" id="Fill-24" fill="#FEFEFE" mask="url(#mask-2)"></path>
            <path d="M87.8811,43.0018 C87.7581,42.9788 87.5411,42.9438 87.3361,42.9438 C86.8131,42.9438 86.2661,43.2178 86.2661,43.9438 C86.2661,44.4668 86.6781,44.8648 87.1541,44.8648 C87.5061,44.8648 87.7351,44.7868 87.9161,44.6738 L87.8811,43.0018 Z M85.6641,41.8988 L85.6641,40.8178 C86.1431,40.6818 86.5981,40.6148 87.1331,40.6148 C88.1431,40.6148 89.0081,40.8868 89.0081,42.0228 C89.0081,42.4318 88.9731,43.0228 88.9631,43.6718 L88.9631,44.0678 C88.9631,44.5938 89.0531,44.7398 89.3031,44.7398 C89.3601,44.7398 89.4611,44.7198 89.5411,44.6938 L89.7111,44.8648 L88.8601,45.5488 C88.4281,45.4918 88.0881,45.2738 87.9491,44.9918 C87.5631,45.2738 87.1991,45.5488 86.6991,45.5488 C85.9261,45.5488 85.1641,45.0708 85.1641,44.2308 C85.1641,43.0228 86.3131,42.5588 87.3481,42.5588 C87.5291,42.5588 87.7231,42.5918 87.8811,42.5918 C87.8811,41.9788 87.8361,41.2968 87.0631,41.2968 C86.5061,41.2968 86.2231,41.4798 85.9381,41.8988 L85.6641,41.8988 Z" id="Fill-25" fill="#FEFEFE" mask="url(#mask-2)"></path>
            <path d="M53.6916,37.7548 C53.9886,38.7338 53.2226,39.4718 52.9706,40.3418 C52.9086,40.4688 52.7226,40.4058 52.6096,40.3898 L52.5726,40.3118 C52.6716,39.6368 53.2056,39.0058 52.8886,38.2848 C52.8086,37.9988 52.2896,37.9988 52.4236,37.6578 C52.5056,37.5468 52.5056,37.3518 52.6896,37.3688 C53.0726,37.3218 53.5896,37.3048 53.6916,37.7548" id="Fill-26" fill="#FEFEFE" mask="url(#mask-2)"></path>
            <path d="M52.0568,37.7548 C52.3578,38.7338 51.5878,39.4718 51.3398,40.3418 C51.2738,40.4688 51.0878,40.4058 50.9748,40.3898 L50.9398,40.3118 C51.0388,39.6368 51.5728,39.0058 51.2558,38.2848 C51.1738,37.9988 50.6568,37.9988 50.7908,37.6578 C50.8708,37.5468 50.8708,37.3518 51.0548,37.3688 C51.4398,37.3218 51.9528,37.3048 52.0568,37.7548" id="Fill-27" fill="#FEFEFE" mask="url(#mask-2)"></path>
            <path d="M92.5529,37.7548 C92.8539,38.7338 92.0879,39.4718 91.8359,40.3418 C91.7719,40.4688 91.5859,40.4058 91.4689,40.3898 L91.4379,40.3118 C91.5389,39.6368 92.0689,39.0058 91.7519,38.2848 C91.6699,37.9988 91.1549,37.9988 91.2869,37.6578 C91.3709,37.5468 91.3709,37.3518 91.5549,37.3688 C91.9379,37.3218 92.4529,37.3048 92.5529,37.7548" id="Fill-28" fill="#FEFEFE" mask="url(#mask-2)"></path>
            <path d="M90.9182,37.7548 C91.2212,38.7338 90.4512,39.4718 90.2032,40.3418 C90.1332,40.4688 89.9512,40.4058 89.8362,40.3898 L89.8032,40.3118 C89.9042,39.6368 90.4362,39.0058 90.1192,38.2848 C90.0332,37.9988 89.5182,37.9988 89.6522,37.6578 C89.7362,37.5468 89.7362,37.3518 89.9202,37.3688 C90.3052,37.3218 90.8202,37.3048 90.9182,37.7548" id="Fill-29" fill="#FEFEFE" mask="url(#mask-2)"></path>
        </g>
    </g>
</svg>