<?xml version="1.0" encoding="UTF-8" standalone="no"?>
<!DOCTYPE svg PUBLIC "-//W3C//DTD SVG 1.1//EN" "http://www.w3.org/Graphics/SVG/1.1/DTD/svg11.dtd">
<svg xmlns="http://www.w3.org/2000/svg" version="1.1" viewBox="0.00 0.00 459.00 459.00">
<path stroke="#a2a2a2" stroke-width="2.00" fill="none" stroke-linecap="butt" vector-effect="non-scaling-stroke" d="
  M 416.11 312.54
  Q 417.56 306.84 416.42 306.17"
/>
<path fill="#009de0" d="
  M 167.56 112.46
  A 0.53 0.53 0.0 0 0 167.61 111.78
  C 162.22 104.37 156.87 97.62 152.17 89.33
  C 147.15 80.47 140.68 71.08 137.06 60.20
  C 135.86 56.61 136.21 52.92 135.47 49.06
  Q 135.01 46.69 135.54 45.49
  C 137.23 41.64 141.01 43.20 144.29 42.80
  Q 146.80 42.50 148.70 43.00
  C 155.13 44.69 159.52 46.01 167.94 48.34
  C 184.51 52.92 196.57 62.48 210.44 71.05
  Q 216.55 74.83 223.51 82.73
  C 226.26 85.86 230.99 85.34 233.96 82.36
  C 237.39 78.92 243.72 75.98 247.54 74.30
  Q 260.25 68.71 270.17 61.67
  C 272.90 59.74 276.31 58.46 278.92 55.68
  Q 281.16 53.31 282.65 52.46
  C 285.38 50.91 288.43 49.88 290.92 48.19
  C 296.33 44.53 301.34 40.44 307.38 37.80
  Q 312.67 35.50 314.85 34.26
  C 323.52 29.33 332.52 25.07 341.23 20.23
  Q 344.39 18.47 347.40 14.90
  C 348.34 13.80 350.00 13.18 351.58 12.95
  C 356.02 12.32 360.10 10.47 364.37 13.63
  Q 364.73 13.89 364.75 14.34
  C 365.25 31.31 351.37 48.08 341.45 61.81
  C 339.42 64.63 337.07 68.31 335.65 71.55
  C 330.89 82.36 324.37 87.96 317.68 96.06
  C 310.48 104.76 302.45 112.98 295.76 122.22
  A 1.72 1.71 48.7 0 0 295.65 124.06
  C 296.89 126.25 298.44 127.78 300.70 129.42
  Q 305.97 133.24 310.44 137.94
  Q 311.92 139.50 313.37 142.47
  Q 314.84 145.51 316.97 148.13
  C 318.78 150.36 321.66 151.68 323.85 153.96
  C 325.53 155.70 327.52 155.76 329.06 157.49
  Q 339.33 169.03 348.06 181.76
  Q 348.98 183.10 351.89 188.57
  C 353.98 192.53 357.40 195.89 359.48 199.31
  Q 364.86 208.15 370.41 216.87
  Q 371.93 219.25 372.78 222.07
  C 374.31 227.16 375.80 229.80 378.91 234.82
  C 382.74 241.02 385.71 247.80 389.13 254.25
  Q 393.00 261.55 395.39 267.41
  C 398.80 275.79 401.41 283.05 406.22 292.06
  C 407.61 294.66 406.93 296.02 405.56 298.30
  Q 404.26 300.47 402.18 299.71
  C 391.04 295.65 381.02 291.19 370.69 285.45
  Q 363.99 281.73 353.91 274.61
  Q 343.96 267.57 333.82 260.80
  C 329.03 257.60 324.09 253.43 319.00 249.99
  C 315.38 247.54 313.07 244.16 309.48 241.76
  C 299.55 235.10 291.07 226.76 281.22 220.14
  C 273.15 214.73 265.67 208.61 257.57 203.28
  C 254.57 201.31 252.08 198.74 249.24 196.90
  C 240.48 191.22 232.37 184.69 223.61 179.12
  A 0.82 0.81 -72.4 0 0 222.36 179.77
  L 222.27 181.78
  Q 222.25 182.21 221.98 182.55
  C 216.89 188.96 216.75 195.73 214.03 202.91
  Q 213.06 205.49 212.47 208.75
  C 211.37 214.94 207.43 221.05 204.91 226.27
  C 199.41 237.65 193.25 248.71 187.42 259.92
  C 185.27 264.07 182.46 268.75 179.43 273.33
  C 173.77 281.88 168.63 291.48 163.07 299.38
  C 157.68 307.03 151.60 311.58 145.46 317.46
  C 144.35 318.51 140.13 321.46 138.19 321.73
  C 132.05 322.57 133.11 313.44 132.76 309.99
  C 132.24 304.75 133.36 299.16 133.60 293.87
  C 133.69 291.75 132.47 290.24 132.90 288.19
  Q 133.85 283.64 134.75 279.10
  C 135.48 275.43 134.68 271.51 135.83 268.08
  C 137.51 263.03 137.83 257.56 139.25 252.91
  C 140.66 248.34 142.06 244.27 142.83 239.09
  Q 143.16 236.88 144.40 233.06
  C 145.83 228.64 145.20 224.02 146.32 220.10
  Q 147.20 217.04 148.51 214.15
  C 149.58 211.80 152.39 210.08 152.22 207.09
  Q 151.97 202.80 152.78 200.49
  C 157.25 187.74 162.33 174.92 165.62 161.89
  A 1.40 1.39 -81.2 0 0 164.36 160.16
  C 159.38 159.82 154.78 160.45 149.93 160.60
  Q 146.46 160.71 141.37 160.05
  C 129.63 158.53 117.38 158.91 105.74 156.57
  Q 94.15 154.24 82.43 152.73
  C 79.39 152.34 76.53 150.51 73.72 150.54
  Q 71.41 150.57 69.13 150.40
  C 65.48 150.13 62.60 148.17 59.04 147.43
  C 54.65 146.51 50.84 145.71 46.16 144.22
  Q 43.42 143.35 40.60 142.86
  C 37.07 142.25 33.96 140.76 30.40 140.15
  C 25.87 139.38 25.15 138.16 21.87 135.36
  Q 19.66 133.47 21.42 131.44
  Q 28.01 123.86 37.40 120.11
  Q 48.75 115.57 56.01 113.54
  C 65.28 110.95 76.61 110.14 86.72 108.58
  C 95.09 107.29 102.71 108.20 110.96 107.89
  Q 120.73 107.53 130.44 108.57
  C 139.06 109.50 145.31 109.90 152.76 110.55
  C 157.09 110.93 161.23 112.07 165.51 112.99
  Q 166.77 113.26 167.56 112.46
  Z"
/>
<path fill="#c3c3c3" d="
  M 416.11 312.54
  Q 417.56 306.84 416.42 306.17
  Q 422.07 301.03 423.97 296.24
  C 428.41 284.98 431.13 270.78 429.37 258.48
  C 425.25 229.67 408.17 201.00 386.56 181.19
  Q 369.51 165.56 352.05 156.67
  C 338.29 149.65 326.80 145.71 313.79 140.72
  Q 313.38 140.57 313.51 140.14
  L 313.59 139.88
  Q 313.65 139.71 313.82 139.75
  Q 316.93 140.56 320.09 141.16
  Q 324.00 141.91 326.35 142.59
  C 354.29 150.76 380.54 165.56 401.26 185.24
  Q 413.06 196.45 424.06 213.44
  C 444.71 245.36 444.70 285.45 416.11 312.54
  Z"
/>
<path fill="#f0cb13" d="
  M 89.97 177.10
  C 91.33 174.10 97.61 169.98 100.74 169.10
  Q 109.94 166.52 119.49 167.74
  C 123.82 168.29 129.30 178.90 130.32 181.76
  Q 131.41 184.86 131.37 191.21
  A 1.56 1.55 62.6 0 1 131.09 192.10
  C 129.52 194.39 125.70 201.36 122.30 202.83
  C 112.82 206.97 100.12 207.92 92.15 200.62
  C 89.13 197.86 87.46 193.13 87.43 188.91
  Q 87.37 182.79 89.97 177.10
  Z"
/>
<path fill="#c20e1a" d="
  M 89.67 231.41
  C 91.39 230.79 91.86 230.38 93.76 231.06
  Q 97.16 232.27 100.72 231.23
  A 1.67 1.64 -43.8 0 1 101.71 231.24
  C 105.94 232.57 109.97 232.44 112.03 236.98
  Q 112.50 238.00 115.30 240.21
  Q 116.58 241.22 118.05 245.21
  Q 121.84 255.53 122.08 259.00
  Q 122.43 264.18 123.79 269.17
  C 124.81 272.91 123.92 275.93 123.10 279.49
  Q 122.63 281.51 122.34 285.09
  C 121.90 290.63 118.19 299.24 113.83 302.84
  C 112.31 304.09 109.78 304.38 107.92 305.97
  C 106.41 307.25 105.52 309.26 104.05 310.69
  C 101.96 312.73 99.59 312.80 96.80 313.60
  C 88.93 315.84 80.41 313.57 73.31 309.47
  C 66.07 305.30 61.63 301.14 57.38 294.88
  Q 56.66 293.82 56.73 292.50
  Q 57.00 287.33 55.72 282.33
  C 55.25 280.47 55.87 279.01 55.65 277.28
  C 54.75 270.17 55.56 266.04 57.55 258.60
  Q 58.08 256.65 59.57 254.75
  C 61.99 251.67 63.06 248.26 65.73 245.44
  C 68.03 243.00 69.84 240.15 72.55 238.33
  Q 77.73 234.83 83.52 232.48
  C 85.65 231.61 87.92 232.04 89.67 231.41
  Z"
/>
<path fill="#808080" d="
  M 416.42 306.17
  Q 417.56 306.84 416.11 312.54
  Q 414.23 314.45 409.41 320.41
  Q 397.42 335.26 377.59 348.60
  C 343.59 371.47 306.71 387.84 268.49 401.21
  C 267.20 401.66 266.25 402.71 265.71 404.09
  Q 260.89 416.60 247.49 420.52
  Q 201.20 434.07 154.69 447.48
  Q 153.75 447.76 153.74 446.77
  L 153.71 441.77
  Q 153.70 440.72 154.71 440.41
  L 212.86 422.79
  A 0.52 0.52 0.0 0 0 213.23 422.19
  L 211.62 414.30
  Q 211.56 414.00 211.26 414.07
  L 157.23 427.55
  Q 155.53 427.97 155.37 426.22
  L 155.16 423.98
  Q 154.99 422.15 156.77 421.68
  L 208.93 407.87
  Q 209.98 407.59 209.78 406.52
  L 208.95 402.33
  A 1.17 1.16 -11.2 0 0 207.57 401.41
  L 159.78 411.34
  Q 158.10 411.69 157.77 410.00
  L 157.36 407.92
  Q 157.03 406.25 158.69 405.88
  L 206.61 395.12
  A 1.24 1.24 0.0 0 0 207.57 393.80
  L 207.30 391.00
  Q 207.20 390.03 206.25 390.21
  L 162.21 398.41
  Q 161.04 398.63 160.92 397.44
  L 160.69 395.04
  Q 160.59 393.94 161.66 393.70
  Q 201.66 384.81 241.65 375.34
  C 245.99 374.31 250.58 374.11 254.26 375.79
  C 257.54 377.29 258.88 378.24 262.66 377.43
  Q 278.20 374.10 287.70 370.95
  Q 356.66 348.06 416.42 306.17
  Z"
/>
</svg>
