<svg xmlns="http://www.w3.org/2000/svg" id="Capa_1" viewBox="0 0 583.2 93.2" class="ng-scope">
    <path class="logo-base" d="M90 47.3c0 25.3-19.6 44.9-43.5 44.9S3 72.5 3 47.3 22.7 2.4 46.5 2.4C71.1 2.4 90 21.3 90 47.3zm-10.5 0c0-19.6-14-34.4-33-34.4-18.2 0-33 15.4-33 34.4 0 19.6 14.7 34.4 33 34.4s33-15.5 33-34.4zM188.2 90.1h-11.9l-47-69.5v69.5h-10.5V4.5h11.9l47 69.5V4.5h10.5v85.6zM283.6 4.5v9.8h-51.9v26h47v9.8h-47v29.5h51.9v9.8h-62.4V4.5h62.4zM349.6 90.1h-37.9V4.5h37.9c15.4 0 25.3 9.1 25.3 23.2 0 6.3-3.5 13.3-11.2 17.5 9.1 3.5 13.3 11.2 13.3 20.3 0 14.1-10.6 24.6-27.4 24.6zm-27.4-49.8h27.4c6.3 0 14-3.5 14-12.6S358 15 349.6 15h-26.7v25.3h-.7zm27.4 10.5h-27.4v29.5h27.4c9.1 0 16.1-5.6 16.1-14.7.7-10.6-6.3-14.8-16.1-14.8zM487.1 47.3c0 25.3-19.6 44.9-43.5 44.9s-43.5-19.6-43.5-44.9 19.6-44.9 43.5-44.9c24.6 0 43.5 18.9 43.5 44.9zm-10.5 0c0-19.6-14-34.4-33-34.4-18.2 0-33 15.4-33 34.4 0 19.6 14.7 34.4 33 34.4s33-15.5 33-34.4z"/>
    <path class="logo-var1" fill="#A90D21" d="M505.3 85.9c-.7.7-.7 2.1 0 2.8s1.4 1.4 2.8 1.4h14.7c4.2 0 5.6-.7 7-2.1l1.4-1.4 25.3-39.3h-23.9l-27.3 38.6z"/>
    <path class="logo-var2" fill="#F40D21" d="M529.2 10.1c-1.4-2.1-2.1-3.5-7.7-3.5h-14c-.7 0-1.4 0-2.1.7-.7.7-1.4 2.1 0 3.5l26 36.5h23.9l-26.1-37.2z"/>
    <path class="logo-base" d="M549.5 26.2l12.6-19.6h19.6L559.4 41l-9.9-14.8zM560.1 53.6l23.2 36.5H563l-13.3-20.3 10.4-16.2z"/>
</svg>